<svg xmlns="http://www.w3.org/2000/svg" width="321.541" height="347.285" viewBox="0 0 321.541 347.285">
  <g id="그룹_34" data-name="그룹 34" transform="translate(-0.001)">
    <g id="undraw_access_denied_re_awnf_1_" data-name="undraw_access_denied_re_awnf (1)" transform="translate(141.2 0)">
      <path id="Path_968" data-name="Path 968" d="M679.568,176.241h-1.985V123.967c0-16.709-14.107-30.254-31.508-30.254H530.734c-17.4,0-31.509,13.545-31.509,30.254V410.744c0,16.709,14.107,30.254,31.508,30.254h115.34c17.4,0,31.508-13.545,31.508-30.254V213.45h1.985Z" transform="translate(-499.225 -93.713)" fill="#3f3d56"/>
      <path id="Path_969" data-name="Path 969" d="M677.291,127.472V418.3c0,12.665-10.692,22.936-23.885,22.943H535.7c-13.2,0-23.9-10.273-23.9-22.946V127.472c0-12.673,10.705-22.944,23.9-22.942h14.279a10.541,10.541,0,0,0,1.095,10.2,11.5,11.5,0,0,0,9.417,4.826h67.107a11.5,11.5,0,0,0,9.417-4.825,10.541,10.541,0,0,0,1.095-10.2H653.4c13.189,0,23.886,10.266,23.893,22.934Z" transform="translate(-505.396 -99.244)" fill="#fff"/>
      <ellipse id="Ellipse_18" data-name="Ellipse 18" cx="49.141" cy="47.186" rx="49.141" ry="47.186" transform="translate(39.982 50.606)" fill="#5b8def"/>
      <path id="Path_39" data-name="Path 39" d="M676.862,464.346h-104.6a1.9,1.9,0,0,1-1.937-1.86V437.574a1.9,1.9,0,0,1,1.937-1.86h104.6a1.9,1.9,0,0,1,1.937,1.86v24.914a1.9,1.9,0,0,1-1.937,1.86Zm-104.6-27.889a1.141,1.141,0,0,0-1.162,1.116v24.914a1.141,1.141,0,0,0,1.162,1.116h104.6a1.141,1.141,0,0,0,1.162-1.116V437.573a1.141,1.141,0,0,0-1.162-1.116Z" transform="translate(-534.145 -268.598)" fill="#e6e6e6"/>
      <path id="Path_40" data-name="Path 40" d="M636.39,454.074a1.3,1.3,0,1,0,0,2.6H700.31a1.3,1.3,0,1,0,.1-2.6H636.39Z" transform="translate(-565.922 -277.986)" fill="#e6e6e6"/>
      <path id="Path_41" data-name="Path 41" d="M636.39,470.058a1.3,1.3,0,1,0,0,2.6H700.31a1.3,1.3,0,1,0,.1-2.6H636.39Z" transform="translate(-565.922 -286.16)" fill="#e6e6e6"/>
      <path id="Path_42" data-name="Path 42" d="M676.862,549.326h-104.6a1.9,1.9,0,0,1-1.937-1.86V522.554a1.9,1.9,0,0,1,1.937-1.86h104.6a1.9,1.9,0,0,1,1.937,1.86v24.913a1.9,1.9,0,0,1-1.937,1.859Zm-104.6-27.889a1.141,1.141,0,0,0-1.162,1.116v24.914a1.141,1.141,0,0,0,1.162,1.116h104.6a1.141,1.141,0,0,0,1.162-1.116V522.553a1.141,1.141,0,0,0-1.162-1.116Z" transform="translate(-534.145 -312.053)" fill="#e6e6e6"/>
      <path id="Path_43" data-name="Path 43" d="M636.39,539.33a1.3,1.3,0,1,0,0,2.6H700.31a1.3,1.3,0,1,0,.044-2.6H636.39Z" transform="translate(-565.922 -321.582)" fill="#e6e6e6"/>
      <path id="Path_44" data-name="Path 44" d="M636.39,555.318a1.3,1.3,0,1,0,0,2.6H700.31a1.3,1.3,0,1,0,.044-2.6H636.39Z" transform="translate(-565.922 -329.758)" fill="#e6e6e6"/>
      <path id="Path_39-2" data-name="Path 39-2" d="M676.862,634.584h-104.6a1.9,1.9,0,0,1-1.937-1.86V607.812a1.9,1.9,0,0,1,1.937-1.86h104.6a1.9,1.9,0,0,1,1.937,1.86v24.913a1.9,1.9,0,0,1-1.937,1.86ZM572.266,606.7a1.141,1.141,0,0,0-1.162,1.116v24.914a1.141,1.141,0,0,0,1.162,1.116h104.6a1.141,1.141,0,0,0,1.162-1.116V607.811a1.141,1.141,0,0,0-1.162-1.116Z" transform="translate(-534.145 -355.65)" fill="#e6e6e6"/>
      <path id="Path_40-2" data-name="Path 40-2" d="M636.39,624.591a1.3,1.3,0,1,0,0,2.6H700.31a1.3,1.3,0,1,0,.1-2.6H636.39Z" transform="translate(-565.922 -365.181)" fill="#e6e6e6"/>
      <path id="Path_41-2" data-name="Path 41-2" d="M636.39,640.578a1.3,1.3,0,1,0,0,2.6H700.31a1.3,1.3,0,1,0,.1-2.6H636.39Z" transform="translate(-565.922 -373.356)" fill="#e6e6e6"/>
      <g id="Group_59" data-name="Group 59" transform="translate(43.035 173.468)">
        <ellipse id="Ellipse_5" data-name="Ellipse 5" cx="8.135" cy="7.811" rx="8.135" ry="7.811" fill="#5b8def"/>
        <path id="Path_40-3" data-name="Path 40-3" d="M591.961,461.712c-.094,0-.169.583-.169,1.3s.076,1.3.169,1.3h8c.094.012.171-.561.172-1.28a2.8,2.8,0,0,0-.167-1.323h-8Z" transform="translate(-587.72 -455.36)" fill="#e6e6e6"/>
      </g>
      <g id="Group_60" data-name="Group 60" transform="translate(43.035 215.146)">
        <ellipse id="Ellipse_5-2" data-name="Ellipse 5-2" cx="8.135" cy="7.811" rx="8.135" ry="7.811" fill="#5b8def"/>
        <path id="Path_40-4" data-name="Path 40-4" d="M591.961,547.005c-.094,0-.169.583-.169,1.3s.076,1.3.169,1.3h8c.094.012.171-.561.172-1.28a2.8,2.8,0,0,0-.167-1.323h-8Z" transform="translate(-587.72 -540.653)" fill="#e6e6e6"/>
      </g>
      <g id="Group_61" data-name="Group 61" transform="translate(43.035 256.807)">
        <ellipse id="Ellipse_5-3" data-name="Ellipse 5-3" cx="8.135" cy="7.811" rx="8.135" ry="7.811" fill="#5b8def"/>
        <path id="Path_40-5" data-name="Path 40-5" d="M591.961,632.263c-.094,0-.169.583-.169,1.3s.076,1.3.169,1.3h8c.094.012.171-.562.172-1.28a2.8,2.8,0,0,0-.167-1.323h-8Z" transform="translate(-587.72 -625.911)" fill="#e6e6e6"/>
      </g>
      <path id="패스_390" data-name="패스 390" d="M0,0,3.99.081,4.669,33.5l-3.99-.081Z" transform="translate(75.631 87.598) rotate(-45)" fill="#fff"/>
      <path id="패스_391" data-name="패스 391" d="M.678.081,4.669,0,3.99,33.418,0,33.5Z" transform="translate(99.317 84.299) rotate(45)" fill="#fff"/>
    </g>
    <g id="undraw_updated_resume_re_7r9j" transform="translate(0.001 98.878)">
      <g id="그룹_31" data-name="그룹 31" transform="translate(17.635 0)">
        <rect id="사각형_131" data-name="사각형 131" width="41.268" height="39.133" transform="translate(18.334 34.28) rotate(-6.717)" fill="#2f2e41"/>
        <ellipse id="타원_56" data-name="타원 56" cx="20.121" cy="20.121" rx="20.121" ry="20.121" transform="translate(18.25 11.614)" fill="#ffb6b6"/>
        <path id="패스_392" data-name="패스 392" d="M65.967.527h0C53.428,4.008,54.6,8.682,50.8,11.627c-6.694,5.189-8.06,18.058-3.281,25.88,1.277,2.09,3.776,4.852,3.119,8.23A8.533,8.533,0,0,1,47.6,50.393c-3.281,2.6-1.276-.27-2.66,1.746-1.528,2.225,1.543,4.753.292,8.563-1.109,3.378-4.2,3.468-4.364,5.529-.277,3.549,8.408,9.6,16.711,8.062,7.393-1.366,12.186-8.317,13.341-14.467.774-4.12.5-11.018-3.078-13.966a17.529,17.529,0,0,1-3.243-3.2c-1.1-1.426-2.537-3.3-2-4.78.577-1.573,2.8-1.043,3.99-2.619,1.614-2.138-.955-5.126-1-8.48-.074-5.678,7.079-13.361,15.628-13.3,9.7.065,14.428,10.045,14.924,11.138,1.029,2.265,1.282,4.545,1.789,9.1.727,6.542,1.182,10.642-.372,15.089-2.236,6.4-6.069,6.185-6.608,10.808-.84,7.208,7.825,13.327,8.814,14.007,7.331,5.042,17.573,5.612,18.955,2.783,1.245-2.549-5.882-5.448-6.528-12.843-.56-6.409,4.379-8.965,2.742-13.219-1.8-4.683-8.257-2.806-11.681-7.938-3.2-4.79,1.255-8.181-.751-18.539A32.229,32.229,0,0,0,95.813,9.609c-2.127-2.557-4.291-5.157-7.9-6.234C83.875,2.17,72.6-1.315,65.967.527h0Z" transform="translate(-40.862 0)" fill="#2f2e41"/>
        <path id="패스_393" data-name="패스 393" d="M84.036,28.312c1.034,4.315,7.857,5.685,10.725,5.9a15.885,15.885,0,0,0,9.1-1.789c1.4-.809,1.868-1.447,3.367-1.829,2.03-.517,3.161.145,6.526.664,3.742.578,5.613.867,6.443-.042,1.356-1.486-.308-5.63-2.412-8.313-3.89-4.962-10.054-5.914-12.928-6.358-3.284-.508-9.949-1.537-15.463,2.538-.737.545-6.411,4.845-5.361,9.229h0Z" transform="translate(-65.33 -9.121)" fill="#2f2e41"/>
      </g>
      <path id="패스_401" data-name="패스 401" d="M88.892,433.055a132.689,132.689,0,0,1-64.727-.628c-1.169-4.328-2.5-9.12-4-14.42-13.5-47.594,13.85-81.337,13.85-81.337l6.748-5.324,60.74,8.166c7.069,34.462,2.468,60.035-12.609,93.544h0Z" transform="translate(-9.333 -188.347)" fill="#2f2e41"/>
      <path id="패스_402" data-name="패스 402" d="M96.862,129.252l-28.415-2.841-20.6,17.759L54.24,208.1,51.4,220.18l67.485,2.841-3.552-17.049L120.3,143.46Z" transform="translate(-27.198 -71.856)" fill="#5b8def"/>
      <rect id="사각형_132" data-name="사각형 132" width="45.463" height="71.037" transform="translate(33.436 90.784)" fill="#fff"/>
      <path id="패스_403" data-name="패스 403" d="M150.236,230.372h-12.7a.623.623,0,0,1,0-1.246h12.7a.623.623,0,0,1,0,1.246Z" transform="translate(-77.824 -130.242)" fill="#5b8def"/>
      <path id="패스_404" data-name="패스 404" d="M150.236,241.477h-12.7a.623.623,0,0,1,0-1.246h12.7a.623.623,0,1,1,0,1.246Z" transform="translate(-77.824 -136.555)" fill="#5b8def"/>
      <path id="패스_405" data-name="패스 405" d="M150.236,252.582h-12.7a.623.623,0,1,1,0-1.246h12.7a.623.623,0,1,1,0,1.246Z" transform="translate(-77.824 -142.867)" fill="#5b8def"/>
      <path id="패스_406" data-name="패스 406" d="M123.785,289.1H92.9a1.515,1.515,0,1,1,0-3.03h30.89a1.515,1.515,0,1,1,0,3.03Z" transform="translate(-51.943 -162.61)" fill="#e6e6e6"/>
      <path id="b-2282" d="M65.756,327.256c6.146,1.926,12.122.316,13.347-3.6s-2.764-8.643-8.912-10.569a16.119,16.119,0,0,0-7.589-.6l-26.145-7.833-16.593,11.87,39.315,6.888a16.12,16.12,0,0,0,6.577,3.839Z" transform="translate(-11.291 -173.178)" fill="#ffb6b6"/>
      <path id="패스_407" data-name="패스 407" d="M23.327,164.27A28.374,28.374,0,0,0,11.08,181.28L.193,227.547s-2.041,6.8,7.144,10.206,20.412-11.227,20.412-11.227L22.622,221.4l9.89-43.181L23.327,164.27h0Z" transform="translate(0 -93.377)" fill="#5b8def"/>
      <path id="c-2283" d="M93.261,318.681c-6.389.813-11.988-1.826-12.5-5.892s4.244-8.02,10.636-8.832a16.119,16.119,0,0,1,7.576.747l27.116-3.1,14.24,14.61-39.913-.151a16.121,16.121,0,0,1-7.151,2.619Z" transform="translate(-45.883 -171.441)" fill="#ffb6b6"/>
      <path id="패스_408" data-name="패스 408" d="M194.593,164.164a28.374,28.374,0,0,1,9.056,18.9l2.559,47.462s.81,7.057-8.832,8.786-18.113-14.649-18.113-14.649l5.951-4.143-2.122-44.248,11.5-12.11h0Z" transform="translate(-101.899 -93.316)" fill="#5b8def"/>
      <rect id="사각형_133" data-name="사각형 133" width="16.338" height="19.89" transform="translate(38.408 95.756)" fill="#5b8def"/>
      <path id="패스_409" data-name="패스 409" d="M93.378,253.475l-1.122,4.916-.028.128h-3.2c.384-1.62.86-3.623,1.08-4.582a4.269,4.269,0,0,1,1.463-2.294,2.481,2.481,0,0,1,.4-.3l1.4,2.131h0Z" transform="translate(-50.608 -142.872)" fill="#e6e6e6"/>
      <path id="패스_410" data-name="패스 410" d="M119.672,258.51h-3.111l-.256-5.335,1.7-1.8.05-.05a4.3,4.3,0,0,1,1.378,2.884C119.487,255.114,119.587,256.925,119.672,258.51Z" transform="translate(-66.112 -142.863)" fill="#e6e6e6"/>
      <g id="그룹_33" data-name="그룹 33" transform="translate(41.483 98.157)">
        <rect id="사각형_134" data-name="사각형 134" width="5.596" height="5.306" transform="translate(2.486 4.649) rotate(-6.717)" fill="#2f2e41"/>
        <ellipse id="타원_57" data-name="타원 57" cx="2.728" cy="2.728" rx="2.728" ry="2.728" transform="translate(2.475 1.575)" fill="#ffb6b6"/>
        <path id="패스_414" data-name="패스 414" d="M99.525,227.514h0c-1.7.472-1.542,1.106-2.057,1.505a2.922,2.922,0,0,0-.445,3.509c.173.283.512.658.423,1.116a1.157,1.157,0,0,1-.411.631c-.445.353-.173-.037-.361.237-.207.3.209.644.04,1.161-.15.458-.57.47-.592.75-.037.481,1.14,1.3,2.266,1.093a2.433,2.433,0,0,0,1.809-1.962,2.166,2.166,0,0,0-.417-1.894,2.377,2.377,0,0,1-.44-.434c-.149-.193-.344-.448-.271-.648s.38-.141.541-.355c.219-.29-.129-.7-.135-1.15a2.149,2.149,0,0,1,2.119-1.8,2.478,2.478,0,0,1,2.024,1.51,3.978,3.978,0,0,1,.243,1.234,4.43,4.43,0,0,1-.05,2.046c-.3.867-.823.839-.9,1.466-.114.977,1.061,1.807,1.2,1.9.994.684,2.383.761,2.57.377.169-.346-.8-.739-.885-1.742-.076-.869.594-1.216.372-1.792-.244-.635-1.12-.38-1.584-1.076-.433-.65.17-1.109-.1-2.514a4.37,4.37,0,0,0-.908-1.933,2.254,2.254,0,0,0-1.071-.845,6.648,6.648,0,0,0-2.976-.386h0Z" transform="translate(-96.121 -227.443)" fill="#2f2e41"/>
        <path id="패스_415" data-name="패스 415" d="M101.976,231.281c.14.585,1.065.771,1.454.8a2.154,2.154,0,0,0,1.234-.243,1.578,1.578,0,0,1,.456-.248c.275-.07.429.02.885.09.507.078.761.118.874-.006.184-.2-.042-.763-.327-1.127a2.638,2.638,0,0,0-1.753-.862,2.724,2.724,0,0,0-2.1.344c-.1.074-.869.657-.727,1.251Z" transform="translate(-99.439 -228.679)" fill="#2f2e41"/>
      </g>
      <path id="패스_416" data-name="패스 416" d="M105.96,248.183l-.561,7.061H95.6l-.007-.128-.682-6.748-.007-.078,2.074-1.783.639-.554.433-.369,1.116.114,3.211.319h.007l1.08.654,1.612.98.767.462Z" transform="translate(-53.948 -139.598)" fill="#e6e6e6"/>
    </g>
  </g>
</svg>
