<svg xmlns="http://www.w3.org/2000/svg" width="359.641" height="313.653" viewBox="0 0 359.641 313.653">
  <g id="undraw_secure_files_re_6vdh" transform="translate(0)">
    <path id="패스_51" data-name="패스 51" d="M743.248,563.1a4.486,4.486,0,0,1,4.859-4.87l4.739-9.092,6.227,1.532L752.2,563.416a4.511,4.511,0,0,1-8.953-.316Z" transform="translate(-458.859 -343.112)" fill="#ffb7b7"/>
    <path id="패스_52" data-name="패스 52" d="M625.9,604.706H620.65l-2.5-20.268h7.756Z" transform="translate(-313.23 -296.146)" fill="#ffb7b7"/>
    <path id="패스_53" data-name="패스 53" d="M785.921,760.33H768.977v-.214a6.6,6.6,0,0,1,6.594-6.595h10.349Z" transform="translate(-471.906 -446.676)" fill="#2f2e41"/>
    <path id="패스_54" data-name="패스 54" d="M706.385,597.482l-5.07,1.382-7.745-18.9,7.483-2.04Z" transform="translate(-351.447 -292.848)" fill="#ffb7b7"/>
    <path id="패스_55" data-name="패스 55" d="M874.535,751.539,858.188,756l-.056-.207a6.6,6.6,0,0,1,4.627-8.1h0l9.984-2.723Z" transform="translate(-516.963 -442.344)" fill="#2f2e41"/>
    <path id="패스_56" data-name="패스 56" d="M611.73,447.135l-2.621,39.8L614.74,531.6l9.223-2.815.389-39.9,7.378-23.009,21.844,61.455,10-3.689-8.252-39.9-4.66-37.474Z" transform="translate(-308.649 -226.13)" fill="#2f2e41"/>
    <path id="패스_57" data-name="패스 57" d="M805.824,437.806l-15.531,2.29-5.6,5.534-1.737,19.882,1.079,17.611-4.5,31.056s11.311-6.279,20.077,1.581,21.031,1.389,21.284-3.84Z" transform="translate(-477.258 -286.698)" fill="#cbcbcb"/>
    <path id="패스_58" data-name="패스 58" d="M816.834,462.446v-.022l7.715-25.149.1-.007c.549-.036,13.485-.8,16.378,5.589l.014.031-.879,26.135,1.21,40.932-23.924,5.182-.174.038Z" transform="translate(-496.155 -286.402)" fill="#2f2e41"/>
    <path id="패스_59" data-name="패스 59" d="M788.6,462.932l1.415-21.32c-10.066.626-9.915,7.763-9.9,8.074l-.11,31.89-2.016,34.117,7.33-.55Z" transform="translate(-476.47 -288.626)" fill="#2f2e41"/>
    <path id="패스_60" data-name="패스 60" d="M753.485,530.4l8.937-20.741,6.238-11.455,3.257,20.663-11.307,16.961Z" transform="translate(-464.055 -317.304)" fill="#2f2e41"/>
    <path id="패스_61" data-name="패스 61" d="M828.251,537.211a4.487,4.487,0,0,1,6.08-3.219l7.21-7.289,5.5,3.3-10.326,10.151a4.511,4.511,0,0,1-8.462-2.943Z" transform="translate(-501.887 -331.743)" fill="#ffb7b7"/>
    <path id="패스_62" data-name="패스 62" d="M840.651,491l14.7-16.126-9.731-13.885,1-6.789,5.735-7.084.112.145c.611.791,14.977,19.455,15.389,26.52.414,7.091-20.235,25.03-21.114,25.79l-.122.106Z" transform="translate(-508.224 -291.417)" fill="#2f2e41"/>
    <ellipse id="타원_5" data-name="타원 5" cx="10.448" cy="10.448" rx="10.448" ry="10.448" transform="translate(309.155 128.465)" fill="#ffb7b7"/>
    <path id="패스_63" data-name="패스 63" d="M812.877,390.189l.507-1.02-2.549-1.266s-2.812-4.575-7.9-3.289-7.377,2.055-7.377,2.055l-2.542,1.279,1.276,1.27-2.289.769,1.529.76-1.779,1.023.958,5.243s1.591-3.976,4.649-2.457,8.653-.785,8.653-.785l4.86,9.406s1-3.3,2.79-2.418C813.663,400.758,818.231,393.485,812.877,390.189Z" transform="translate(-483.446 -259.629)" fill="#2f2e41"/>
    <path id="패스_64" data-name="패스 64" d="M377.945,321.186,219.059,365,166.738,175.29l158.886-43.819Z" transform="translate(-166.738 -131.472)" fill="#fff"/>
    <path id="패스_65" data-name="패스 65" d="M377.945,321.186,219.059,365,166.738,175.29l158.886-43.819ZM221.089,361.428l153.281-42.273L323.595,135.048,170.314,177.32Z" transform="translate(-166.738 -131.472)" fill="#f1f1f1"/>
    <path id="패스_66" data-name="패스 66" d="M363.69,258.418,323.862,269.4a2.2,2.2,0,0,1-2.7-1.534L310.175,228.04a2.2,2.2,0,0,1,1.534-2.7l39.828-10.984a2.2,2.2,0,0,1,2.7,1.534l10.984,39.828A2.2,2.2,0,0,1,363.69,258.418Zm-51.746-32.233a1.32,1.32,0,0,0-.921,1.622l10.984,39.828a1.32,1.32,0,0,0,1.622.921l39.828-10.984a1.32,1.32,0,0,0,.921-1.622l-10.984-39.828a1.32,1.32,0,0,0-1.622-.921Z" transform="translate(-239.381 -173.429)" fill="#e5e5e5"/>
    <path id="패스_67" data-name="패스 67" d="M343.508,275.135,303.681,286.12a1.98,1.98,0,0,1-2.432-1.381l-10.984-39.828a1.98,1.98,0,0,1,1.381-2.432l39.828-10.984a1.98,1.98,0,0,1,2.432,1.381L344.889,272.7a1.98,1.98,0,0,1-1.381,2.432Z" transform="translate(-229.296 -182.119)" fill="#5b8def"/>
    <rect id="사각형_44" data-name="사각형 44" width="115.293" height="4.455" transform="translate(49.207 129.106) rotate(-15.418)" fill="#f1f1f1"/>
    <rect id="사각형_45" data-name="사각형 45" width="115.293" height="4.455" transform="translate(52.295 140.304) rotate(-15.418)" fill="#f1f1f1"/>
    <rect id="사각형_46" data-name="사각형 46" width="115.293" height="4.455" transform="translate(55.384 151.502) rotate(-15.418)" fill="#f1f1f1"/>
    <rect id="사각형_47" data-name="사각형 47" width="115.293" height="4.455" transform="translate(60.819 171.211) rotate(-15.418)" fill="#f1f1f1"/>
    <rect id="사각형_48" data-name="사각형 48" width="115.293" height="4.455" transform="translate(63.907 182.41) rotate(-15.418)" fill="#f1f1f1"/>
    <rect id="사각형_49" data-name="사각형 49" width="115.293" height="4.455" transform="translate(66.996 193.608) rotate(-15.418)" fill="#f1f1f1"/>
    <path id="패스_68" data-name="패스 68" d="M528.7,401.457H363.887v-196.8H528.7Z" transform="translate(-266.638 -168.558)" fill="#fff"/>
    <path id="패스_69" data-name="패스 69" d="M528.7,401.457H363.887v-196.8H528.7ZM366.794,398.55h159V207.568h-159Z" transform="translate(-266.638 -168.558)" fill="#e5e5e5"/>
    <rect id="사각형_50" data-name="사각형 50" width="94.233" height="4.455" transform="translate(137.826 120.703)" fill="#5b8def"/>
    <rect id="사각형_51" data-name="사각형 51" width="94.233" height="4.455" transform="translate(137.826 132.287)" fill="#5b8def"/>
    <rect id="사각형_52" data-name="사각형 52" width="94.233" height="4.455" transform="translate(137.826 143.87)" fill="#5b8def"/>
    <ellipse id="타원_6" data-name="타원 6" cx="2.908" cy="2.908" rx="2.908" ry="2.908" transform="translate(127.257 120.676)" fill="#5b8def"/>
    <rect id="사각형_53" data-name="사각형 53" width="94.233" height="4.455" transform="translate(137.826 70.788)" fill="#e5e5e5"/>
    <rect id="사각형_54" data-name="사각형 54" width="94.233" height="4.455" transform="translate(137.826 82.372)" fill="#e5e5e5"/>
    <rect id="사각형_55" data-name="사각형 55" width="94.233" height="4.455" transform="translate(137.826 93.956)" fill="#e5e5e5"/>
    <ellipse id="타원_7" data-name="타원 7" cx="2.908" cy="2.908" rx="2.908" ry="2.908" transform="translate(127.257 70.276)" fill="#e5e5e5"/>
    <rect id="사각형_56" data-name="사각형 56" width="94.233" height="4.455" transform="translate(137.826 171.102)" fill="#e5e5e5"/>
    <rect id="사각형_57" data-name="사각형 57" width="94.233" height="4.455" transform="translate(137.826 182.686)" fill="#e5e5e5"/>
    <rect id="사각형_58" data-name="사각형 58" width="94.233" height="4.455" transform="translate(137.826 194.27)" fill="#e5e5e5"/>
    <ellipse id="타원_8" data-name="타원 8" cx="2.908" cy="2.908" rx="2.908" ry="2.908" transform="translate(127.257 170.59)" fill="#e5e5e5"/>
    <circle id="타원_9" data-name="타원 9" cx="33.688" cy="33.688" r="33.688" transform="translate(220.685 182.47)" fill="#5b8def"/>
    <path id="패스_70" data-name="패스 70" d="M677.4,549.111v-6.446a9.333,9.333,0,0,0-18.667,0v6.446a4.853,4.853,0,0,0-4.635,4.846v15.232h27.936V553.957A4.853,4.853,0,0,0,677.4,549.111Zm-9.333-12.493a6.054,6.054,0,0,1,6.047,6.047V549.1H662.02v-6.435a6.054,6.054,0,0,1,6.047-6.047Z" transform="translate(-413.694 -335.103)" fill="#fff"/>
    <path id="패스_71" data-name="패스 71" d="M682.347,577.988a2.511,2.511,0,1,0-3.924,2.075v5.458h2.825v-5.458a2.508,2.508,0,0,0,1.1-2.075Z" transform="translate(-425.463 -356.458)" fill="#5b8def"/>
  </g>
</svg>
