<svg xmlns="http://www.w3.org/2000/svg" width="265.974" height="299.281" viewBox="0 0 265.974 299.281">
  <g id="undraw_share_opinion_re_4qk7" transform="translate(-65.121)">
    <path id="패스_660" data-name="패스 660" d="M630.337,157.231h-1.645V112.184A26.072,26.072,0,0,0,602.62,86.111H507.18a26.073,26.073,0,0,0-26.073,26.073V359.32a26.073,26.073,0,0,0,26.073,26.073h95.44a26.073,26.073,0,0,0,26.073-26.072V189.3h1.644Z" transform="translate(-356.905 -86.111)" fill="#3f3d56"/>
    <path id="패스_661" data-name="패스 661" d="M613.972,102.606H601.514a9.25,9.25,0,0,1-8.565,12.744H538.273a9.25,9.25,0,0,1-8.565-12.744H518.072A19.471,19.471,0,0,0,498.6,122.077V368.85a19.471,19.471,0,0,0,19.471,19.471h95.9a19.471,19.471,0,0,0,19.471-19.471h0V122.077a19.471,19.471,0,0,0-19.471-19.471Z" transform="translate(-367.205 -95.823)" fill="#fff"/>
    <path id="패스_663" data-name="패스 663" d="M685.5,482.708H558.58v41.666h4.808v10.9l10.9-10.9H685.5Z" transform="translate(-354.405 -304.206)" fill="#5b8def"/>
    <rect id="사각형_616" data-name="사각형 616" width="57.714" height="1.751" transform="translate(218.301 192.612)" fill="#fff"/>
    <rect id="사각형_617" data-name="사각형 617" width="100.591" height="1.751" transform="translate(218.301 198.671)" fill="#fff"/>
    <rect id="사각형_618" data-name="사각형 618" width="100.492" height="1.751" transform="translate(218.301 204.73)" fill="#fff"/>
    <ellipse id="타원_154" data-name="타원 154" cx="13.787" cy="1.313" rx="13.787" ry="1.313" transform="translate(195.151 233.925)" fill="#e6e6e6"/>
    <ellipse id="타원_155" data-name="타원 155" cx="17.272" cy="1.645" rx="17.272" ry="1.645" transform="translate(153.708 122.361)" fill="#e6e6e6"/>
    <path id="패스_664" data-name="패스 664" d="M220.435,298.894H332.25V335.6h-4.236v9.6l-9.6-9.6h-97.98Z" transform="translate(-155.314 -224.981)" fill="#5b8def"/>
    <rect id="사각형_619" data-name="사각형 619" width="50.845" height="1.543" transform="translate(76.719 86.061)" fill="#fff"/>
    <rect id="사각형_620" data-name="사각형 620" width="88.619" height="1.543" transform="translate(76.719 91.399)" fill="#fff"/>
    <rect id="사각형_621" data-name="사각형 621" width="88.532" height="1.543" transform="translate(76.719 96.737)" fill="#fff"/>
  </g>
</svg>
