<svg xmlns="http://www.w3.org/2000/svg" width="149.642" height="300.108" viewBox="0 0 149.642 300.108">
  <g id="undraw_online_world_re_h4cb" transform="translate(-197.866)">
    <path id="패스_669" data-name="패스 669" d="M581.008,156.873h-1.649V111.7a26.145,26.145,0,0,0-26.144-26.144h-95.7A26.145,26.145,0,0,0,431.366,111.7V359.519a26.145,26.145,0,0,0,26.145,26.145h95.7a26.145,26.145,0,0,0,26.145-26.144V189.027h1.649Z" transform="translate(-233.5 -85.555)" fill="#3f3d56"/>
    <path id="패스_670" data-name="패스 670" d="M584.076,121.575V369.03a19.526,19.526,0,0,1-19.525,19.525H468.387a19.526,19.526,0,0,1-19.525-19.525V121.575a19.526,19.526,0,0,1,19.525-19.525h11.666a9.281,9.281,0,0,0,8.589,12.779H543.47a9.281,9.281,0,0,0,8.59-12.779h12.49a19.526,19.526,0,0,1,19.526,19.525Z" transform="translate(-243.781 -95.248)" fill="#fff"/>
    <path id="패스_671" data-name="패스 671" d="M574.3,312.711c-5.108-2.347-8.466-9.055-8.274-15.672s3.673-12.8,8.475-15.96a16.786,16.786,0,0,1,15.885-1.2c5.154,2.194,12.074,2.791,15.172,8.244,2.381,4.19,1.523,13.539-.162,18.2-1.457,4.027-5.019,6.3-8.493,7.566a28.558,28.558,0,0,1-23.627-1.9Z" transform="translate(-312.629 -198.9)" fill="#2f2e41"/>
    <path id="패스_672" data-name="패스 672" d="M581.716,516.5l-2.157-8.792-.153-.631a2.831,2.831,0,0,0-2.012-2.045l-2.153-.577-1.909-.516-4.12-1.105h0l-8.326-2.235-7.369-1.983-1.781-.478-4.895-1.315L543.8,496l-4.721-1.266-.379-.1a2.846,2.846,0,0,0-3.336,1.6q-.309.711-.606,1.447A103.4,103.4,0,0,0,529.3,516.5c-.054.272-.111.548-.161.825h43.71c0,.05,0,.095,0,.144.074-.045.148-.091.223-.144h8.841Z" transform="translate(-290.956 -325.889)" fill="#2f2e41"/>
    <circle id="타원_156" data-name="타원 156" cx="15.47" cy="15.47" r="15.47" transform="translate(250.353 104.614) rotate(-45)" fill="#ffb8b8"/>
    <path id="패스_673" data-name="패스 673" d="M585.3,448.154a32.265,32.265,0,0,1-5.386,4.8c-.4.284-.808.561-1.225.825-.074.054-.148.1-.223.144,0-.049,0-.095,0-.144H543.023a2.106,2.106,0,0,1-.2-.19c-.223-.2-.441-.417-.652-.635a20.342,20.342,0,0,1-3.48-4.8l4.33-12.243,1.666-4.722,2.421-6.837,2.606-7.377a17.642,17.642,0,0,1-.553-2.082v0c-2.47-12.528,9.686-24.684,9.686-24.684q.142-.111.285-.21a17.951,17.951,0,0,1,3.79-2.144c5.7-2.363,11.666-1.41,15.682-.19a30.684,30.684,0,0,1,4.082,1.551c.47.223.726.363.726.363l.4,12.107.544,16.552.293,9.233.367,11.649.157,5.043Z" transform="translate(-296.567 -262.341)" fill="#5b8def"/>
    <path id="패스_674" data-name="패스 674" d="M659.369,450.743l-3.893-19.773-.544-2.763,2.631-11.777-1.233-6.264-4.6-23.36a2.853,2.853,0,0,0-2.3-2.247l-5.625-.969-5.225-.9a2.805,2.805,0,0,0-2.709,1.039,2.769,2.769,0,0,0-.615,1.728,2.878,2.878,0,0,0,.235,1.13c3.814,8.895,2.388,25.059,1.01,40.688-.041.458-.083.915-.12,1.373-.289,3.249-.561,6.449-.784,9.538-.074,1.027-.14,2.045-.2,3.047-.2,3.34-.318,6.536-.293,9.513,0,.276,0,.553.012.825,0,.049,0,.095,0,.144.074-.045.148-.091.223-.144h24.185Z" transform="translate(-353.223 -260.135)" fill="#2f2e41"/>
    <path id="패스_675" data-name="패스 675" d="M551.038,386.844a2.841,2.841,0,0,0-4.5-1.563l-1.431,1.3-10.857,9.884a2.813,2.813,0,0,0-.709,1c-1.01,2.421-2.895,6.977-5.122,12.651-.788,2.012-1.62,4.169-2.474,6.416-1.423,3.748,3.336,9.488,1.909,13.554q-.371,1.07-.788,2.1c-2.891,7.278-7,13.427-8.416,19.752-.062.276-.124.553-.181.825h15.707c.021-.062.041-.124.062-.19.062-.21.128-.421.194-.635,1.159-3.781,2.454-7.934,3.818-12.3q.284-.9.569-1.818.86-2.74,1.748-5.563c.083-.272.169-.544.256-.817q.3-.953.6-1.905.4-1.249.792-2.507c.685-2.177,1.373-4.367,2.062-6.544,2.792-8.862,2.181-17.385,4.284-24.189.033-.1.062-.194.091-.289.9-2.928,1.7-5.526,2.342-7.69A2.832,2.832,0,0,0,551.038,386.844Z" transform="translate(-284.686 -261.335)" fill="#2f2e41"/>
    <path id="패스_676" data-name="패스 676" d="M626.606,280.594a2.559,2.559,0,0,0,2.719-1.518,3.685,3.685,0,0,0-.262-3.236,6.761,6.761,0,0,0-2.378-2.333,7.814,7.814,0,0,0-3.767-1.3,4.7,4.7,0,0,0-3.649,1.385,3.387,3.387,0,0,0-.612,3.734,5,5,0,0,0,2.909,2.118,17.065,17.065,0,0,0,7.166.941Z" transform="translate(-343.377 -195.236)" fill="#2f2e41"/>
    <path id="패스_677" data-name="패스 677" d="M609.029,311.5c-2.411.7-2.279-.6-3.6-2.732s-3.04-4.647-5.547-4.513c-2.055.11-3.485,1.976-4.95,3.421-2.61,2.576-6.4,4.207-9.981,3.421s-6.535-4.482-5.748-8.063a7.522,7.522,0,0,1,3.7-4.7,15.135,15.135,0,0,1,5.873-1.717,31.271,31.271,0,0,1,13.492,1.411c3,1.005,6.007,2.631,7.5,5.417s2.8,6.817-.11,8.058Z" transform="translate(-320.299 -209.462)" fill="#2f2e41"/>
    <path id="패스_680" data-name="패스 680" d="M553.368,470.369c-.074-.091-.157-.177-.239-.264a6.96,6.96,0,0,0-5.254-2.095,7.221,7.221,0,0,0-.924.107l-.173-.173L545,466.162l-4.041-4.037-2.507-2.507-3.691-3.691-2.771-2.767-1.076-1.076,1.9-7.443-4.858-1.942-6.33-2.528-.1-.041-.235.643-1.691,4.689-1.262,3.484a11.357,11.357,0,0,0,2.816,12,11.145,11.145,0,0,0,1.142.961l4.305,2.87,1.414.94,2.656,1.773,4.383,2.924,2.73,1.819,3.464,2.309a6.407,6.407,0,0,0-.012.68,6.933,6.933,0,0,0,2.52,5.064,6.794,6.794,0,0,0,3.134,1.464h0a6.912,6.912,0,0,0,7.913-4.866,6.508,6.508,0,0,0,.264-1.443A6.87,6.87,0,0,0,553.368,470.369Z" transform="translate(-284.22 -293.917)" fill="#ffb8b8"/>
    <path id="패스_681" data-name="패스 681" d="M644.509,456.111l-.635-3.81-.907-5.431-5.179,1.039-6.734,1.353.524,7.666-.388.268L622.762,463l-4.919,3.385-4.9,3.377,0,0-.037.025a6.285,6.285,0,0,0-.887-.272,6.942,6.942,0,0,0-5.546,1.105,6.87,6.87,0,0,0-1.856,1.959,6.71,6.71,0,0,0-.779,1.744,7.1,7.1,0,0,0-.239,1.192,6.914,6.914,0,0,0,1.678,5.32,6.911,6.911,0,0,0,7.666,1.913h0a6.391,6.391,0,0,0,.9-.421,6.924,6.924,0,0,0,3.015-3.361,6.6,6.6,0,0,0,.379-1.163,6.673,6.673,0,0,0,.111-.672l1.621-.7,4.161-1.79,13.806-5.938,1.336-.573a11.106,11.106,0,0,0,3.068-2.19,11.349,11.349,0,0,0,3.171-9.839Z" transform="translate(-334.681 -297.877)" fill="#ffb8b8"/>
    <path id="패스_682" data-name="패스 682" d="M549.541,391.374a8.712,8.712,0,0,0-.953-2.28,8.524,8.524,0,0,0-2.14-2.408,8.97,8.97,0,0,0-1.146-.746,8.711,8.711,0,0,0-11.822,3.443L523.43,407.7l-.334.6-2.346,4.28.656.408,5.88,3.654,6.507,4.045.458.285,4.367-6.977v0l9.88-15.8a8.774,8.774,0,0,0,.907-1.934c.029-.095.058-.194.087-.289A8.637,8.637,0,0,0,549.541,391.374Z" transform="translate(-286.025 -261.441)" fill="#2f2e41"/>
    <path id="패스_683" data-name="패스 683" d="M658.662,389.434a8.715,8.715,0,0,0-10.911-5.142q-.4.136-.792.309a8.655,8.655,0,0,0-3.674,3.105,8.507,8.507,0,0,0-.9,1.744,8.666,8.666,0,0,0,.2,6.664l1.827,4.062,9.018,20.074.247-.095,7.831-3.023,4.854-1.872,1.9-.73Z" transform="translate(-357.167 -260.836)" fill="#2f2e41"/>
    <path id="패스_684" data-name="패스 684" d="M525.047,625.048h-29.69a7.629,7.629,0,0,1,0-15.257h29.69a7.629,7.629,0,1,1,0,15.257Z" transform="translate(-266.62 -393.616)" fill="#37ff66"/>
    <path id="패스_685" data-name="패스 685" d="M668.128,625.048h-29.69a7.629,7.629,0,1,1,0-15.257h29.69a7.629,7.629,0,1,1,0,15.257Z" transform="translate(-350.7 -393.616)" fill="#ff5246"/>
    <path id="패스_687" data-name="패스 687" d="M582.138,232.79H484.82a7.02,7.02,0,0,0-7.01,7.01V356.5a7.02,7.02,0,0,0,7.01,7.01h97.317a7.018,7.018,0,0,0,7.01-7.01V239.8A7.018,7.018,0,0,0,582.138,232.79ZM588.323,356.5a6.193,6.193,0,0,1-6.185,6.185H484.82a6.193,6.193,0,0,1-6.186-6.185V239.8a6.193,6.193,0,0,1,6.186-6.185h97.317a6.193,6.193,0,0,1,6.185,6.185Z" transform="translate(-260.792 -172.076)" fill="#3f3d56"/>
  </g>
</svg>
