<svg xmlns="http://www.w3.org/2000/svg" xmlns:xlink="http://www.w3.org/1999/xlink" width="327.408" height="558.977" viewBox="0 0 327.408 558.977">
  <defs>
    <filter id="사각형_874" x="45.637" y="437.988" width="244" height="76" filterUnits="userSpaceOnUse">
      <feOffset dx="3" dy="3" input="SourceAlpha"/>
      <feGaussianBlur stdDeviation="3.5" result="blur"/>
      <feFlood flood-opacity="0.161"/>
      <feComposite operator="in" in2="blur"/>
      <feComposite in="SourceGraphic"/>
    </filter>
  </defs>
  <g id="그룹_370" data-name="그룹 370" transform="translate(-796.297 -1785.512)">
    <g id="undraw_hooked_re_vl59" transform="translate(796.297 1785.512)">
      <g id="그룹_288" data-name="그룹 288">
        <path id="패스_654" data-name="패스 654" d="M279.9,558.977H48.519c-25.085,0-45.493-21.4-45.493-47.7V47.7C3.027,21.4,23.435,0,48.519,0H279.9c25.084,0,45.492,21.4,45.492,47.7V511.276c0,26.3-20.408,47.7-45.492,47.7h0Z" fill="#3f3d56"/>
        <path id="패스_655" data-name="패스 655" d="M341.036,170.518a2.02,2.02,0,0,0-2.018,2.018v64.575a2.018,2.018,0,0,0,4.036,0V172.536a2.02,2.02,0,0,0-2.018-2.018Z" transform="translate(-15.646)" fill="#3f3d56"/>
        <path id="패스_656" data-name="패스 656" d="M320.85,47.7V511.268c0,22.894-16.971,41.62-38.43,43.073,0,0-208.7-.461-234.643,0S7.728,528.424,7.564,511.268s0-463.567,0-463.567c0-23.842,18.4-43.164,41.112-43.164H73.22a7.659,7.659,0,0,1,7.409,7.315c.029.272.058.545.106.817a8.455,8.455,0,0,0,8.313,7H239.367a8.455,8.455,0,0,0,8.313-7c.048-.272.077-.545.106-.817a7.659,7.659,0,0,1,7.409-7.315h24.544c22.708,0,41.112,19.322,41.112,43.164h0Z" transform="translate(0)" fill="#fff"/>
        <path id="패스_657" data-name="패스 657" d="M2.018,122.087A2.02,2.02,0,0,0,0,124.1v16.144a2.018,2.018,0,0,0,4.036,0V124.1a2.02,2.02,0,0,0-2.018-2.018Z" fill="#3f3d56"/>
        <path id="패스_658" data-name="패스 658" d="M2.018,170.518A2.02,2.02,0,0,0,0,172.536v31.278a2.018,2.018,0,0,0,4.036,0V172.536A2.02,2.02,0,0,0,2.018,170.518Z" fill="#3f3d56"/>
        <path id="패스_659" data-name="패스 659" d="M2.018,214.913A2.02,2.02,0,0,0,0,216.931v31.278a2.018,2.018,0,0,0,4.036,0V216.931A2.02,2.02,0,0,0,2.018,214.913Z" fill="#3f3d56"/>
        <rect id="사각형_611" data-name="사각형 611" width="32.35" height="5.045" rx="2.522" transform="translate(40.828 11.604)" fill="#3f3d56"/>
        <circle id="타원_151" data-name="타원 151" cx="4.036" cy="4.036" r="4.036" transform="translate(265.355 8.576)" fill="#3f3d56"/>
        <circle id="타원_152" data-name="타원 152" cx="4.036" cy="4.036" r="4.036" transform="translate(276.454 8.576)" fill="#3f3d56"/>
      </g>
    </g>
    <g id="그룹_367" data-name="그룹 367" transform="translate(900.051 1870)">
      <g id="그룹_310" data-name="그룹 310" transform="translate(0 0)">
        <g id="그룹_307" data-name="그룹 307" transform="translate(0 64.464)">
          <g id="undraw_order_ride_re_372k">
            <path id="패스_750" data-name="패스 750" d="M318.517,540.375A3.63,3.63,0,0,0,314.891,544v8.482a3.63,3.63,0,0,0,3.625,3.626h4.6a3.63,3.63,0,0,0,3.626-3.626V544a3.63,3.63,0,0,0-3.626-3.625Z" transform="translate(-310.941 -464.354)" fill="#3f3d56"/>
            <path id="패스_751" data-name="패스 751" d="M549.034,555.878h-4.6a3.912,3.912,0,0,1-3.908-3.908v-8.482a3.912,3.912,0,0,1,3.908-3.908h4.6a3.912,3.912,0,0,1,3.908,3.908v8.482A3.912,3.912,0,0,1,549.034,555.878Z" transform="translate(-436.708 -463.841)" fill="#3f3d56"/>
            <path id="패스_752" data-name="패스 752" d="M418.561,522.58H322.429c-4.375,0-7.934-2.124-7.934-4.736V502.617l4.772-4.139H422.652l3.843,4.148v15.218C426.5,520.455,422.936,522.58,418.561,522.58Z" transform="translate(-310.685 -437.334)" fill="#ccc"/>
            <path id="패스_753" data-name="패스 753" d="M429.165,479.452H325.474L324.42,466.31l.67-1.345,3.9-7.8h95.96l5.27,8.859Z" transform="translate(-317.086 -417.153)" fill="#ccc"/>
            <path id="패스_754" data-name="패스 754" d="M390.8,246.238l-.629,9.875H371.614v-7.335l18.657-3.628Z" transform="translate(-277.81 -197.041)" fill="#fff"/>
            <path id="패스_755" data-name="패스 755" d="M203.016,248.88v7.335H184.739l-.626-9.593.533-1.315Z" transform="translate(-176.637 -197.138)" fill="#fff"/>
            <path id="패스_756" data-name="패스 756" d="M433.062,405.7H336.206l10.33-27.415c.865-2.325,3.539-3.925,6.585-3.939l64.145-.487c3.189-.025,5.989,1.684,6.788,4.142Z" transform="translate(-324.687 -372.121)" fill="#ccc"/>
            <path id="패스_757" data-name="패스 757" d="M436.778,417.456l-84.682-.774a.763.763,0,0,1-.547-.219.431.431,0,0,1-.1-.469l8.118-19.517a.691.691,0,0,1,.652-.366h68.112a.691.691,0,0,1,.652.366l8.452,20.291a.431.431,0,0,1-.1.474A.768.768,0,0,1,436.778,417.456Z" transform="translate(-334.498 -386.475)" fill="#fff"/>
            <path id="패스_758" data-name="패스 758" d="M436.887,374.053H419.3c-.148,0-.283-.146-.351-.381a1.186,1.186,0,0,1,.028-.731l1.45-3.668c.074-.187.195-.3.323-.3h14.687c.128,0,.249.112.323.3l1.45,3.668a1.184,1.184,0,0,1,.028.731C437.169,373.908,437.035,374.053,436.887,374.053Z" transform="translate(-368.147 -368.975)" fill="#5b8def"/>
            <path id="패스_759" data-name="패스 759" d="M315.335,451.684H303.768v-2.542a3.1,3.1,0,0,1,3.1-3.1h8.467Z" transform="translate(-303.768 -412.852)" fill="#ccc"/>
            <path id="패스_760" data-name="패스 760" d="M564.807,451.684H553.24v-5.643h8.467a3.1,3.1,0,0,1,3.1,3.1Z" transform="translate(-444.906 -412.852)" fill="#ccc"/>
          </g>
        </g>
        <g id="Group_41" data-name="Group 41" transform="translate(39.733 0)">
          <circle id="Ellipse_220" data-name="Ellipse 220" cx="20.218" cy="20.218" r="20.218" transform="translate(0)" fill="#5b8def"/>
          <path id="Path_1106" data-name="Path 1106" d="M356.973,301.3h-6.349v-6.349a1.494,1.494,0,0,0-1.494-1.494h0a1.494,1.494,0,0,0-1.494,1.494V301.3h-6.349a1.494,1.494,0,0,0-1.494,1.494h0a1.494,1.494,0,0,0,1.494,1.494h6.349v6.349a1.494,1.494,0,0,0,1.494,1.494h0a1.494,1.494,0,0,0,1.494-1.494v-6.349h6.349a1.494,1.494,0,0,0,1.494-1.494h0a1.494,1.494,0,0,0-1.494-1.494Z" transform="translate(-329.016 -282.659)" fill="#fff"/>
        </g>
      </g>
    </g>
    <text id="신규계약" transform="translate(908.434 2079)" font-size="26" font-family="MalgunGothicBold, Malgun Gothic"><tspan x="0" y="0">신규계약</tspan></text>
    <text id="보험시작일" transform="translate(864.434 2137.427)" font-size="13" font-family="MalgunGothicBold, Malgun Gothic"><tspan x="-32.5" y="0">보험시작일</tspan></text>
    <text id="보험종료일" transform="translate(864.434 2185.5)" font-size="13" font-family="MalgunGothicBold, Malgun Gothic"><tspan x="-32.5" y="0">보험종료일</tspan></text>
    <g id="사각형_872" data-name="사각형 872" transform="translate(937.434 2116)" fill="#fff" stroke="#919191" stroke-width="1">
      <rect width="150" height="32" rx="5" stroke="none"/>
      <rect x="0.5" y="0.5" width="149" height="31" rx="4.5" fill="none"/>
    </g>
    <g id="사각형_873" data-name="사각형 873" transform="translate(937.434 2165)" fill="#fff" stroke="#919191" stroke-width="1">
      <rect width="150" height="30" rx="5" stroke="none"/>
      <rect x="0.5" y="0.5" width="149" height="29" rx="4.5" fill="none"/>
    </g>
    <g id="office-monthly-calendar" transform="translate(1060.848 2123.662)">
      <g id="그룹_51" data-name="그룹 51" transform="translate(0)">
        <path id="패스_91" data-name="패스 91" d="M18.6,45.333h-1.71a.57.57,0,1,0,0,1.14h1.14V59.2H3.973V46.473h1.52a.57.57,0,1,0,0-1.14H3.4a.572.572,0,0,0-.57.57V59.772a.572.572,0,0,0,.57.57H18.6a.572.572,0,0,0,.57-.57V45.9A.572.572,0,0,0,18.6,45.333Z" transform="translate(-2.833 -43.813)" fill="#5b8def"/>
        <path id="패스_92" data-name="패스 92" d="M206.185,45.333H204.57a.57.57,0,0,0,0,1.14h1.615a.57.57,0,0,0,0-1.14Z" transform="translate(-197.255 -43.813)" fill="#5b8def"/>
        <path id="패스_93" data-name="패스 93" d="M89.733,351.333H88.4a.572.572,0,0,0-.57.57v.95a.572.572,0,0,0,.57.57h1.33a.572.572,0,0,0,.57-.57v-.95A.572.572,0,0,0,89.733,351.333Z" transform="translate(-84.983 -339.554)" fill="#5b8def"/>
        <path id="패스_94" data-name="패스 94" d="M208.828,351.333H207.4a.572.572,0,0,0-.57.57v.95a.572.572,0,0,0,.57.57h1.425a.572.572,0,0,0,.57-.57v-.95A.572.572,0,0,0,208.828,351.333Z" transform="translate(-199.993 -339.554)" fill="#5b8def"/>
        <path id="패스_95" data-name="패스 95" d="M90.3,258.4a.572.572,0,0,0-.57-.57H88.4a.572.572,0,0,0-.57.57v.95a.572.572,0,0,0,.57.57h1.33a.572.572,0,0,0,.57-.57Z" transform="translate(-84.983 -249.188)" fill="#5b8def"/>
        <path id="패스_96" data-name="패스 96" d="M209.4,258.4a.572.572,0,0,0-.57-.57H207.4a.572.572,0,0,0-.57.57v.95a.572.572,0,0,0,.57.57h1.425a.572.572,0,0,0,.57-.57Z" transform="translate(-199.993 -249.188)" fill="#5b8def"/>
        <path id="패스_97" data-name="패스 97" d="M330.566,257.833h-1.33a.572.572,0,0,0-.57.57v.95a.572.572,0,0,0,.57.57h1.33a.572.572,0,0,0,.57-.57v-.95A.572.572,0,0,0,330.566,257.833Z" transform="translate(-317.742 -249.188)" fill="#5b8def"/>
        <path id="패스_98" data-name="패스 98" d="M87.833,162.07v.95a.572.572,0,0,0,.57.57h1.33a.572.572,0,0,0,.57-.57v-.95a.572.572,0,0,0-.57-.57H88.4A.572.572,0,0,0,87.833,162.07Z" transform="translate(-84.983 -156.085)" fill="#5b8def"/>
        <path id="패스_99" data-name="패스 99" d="M209.4,162.07a.572.572,0,0,0-.57-.57H207.4a.572.572,0,0,0-.57.57v.95a.572.572,0,0,0,.57.57h1.425a.572.572,0,0,0,.57-.57Z" transform="translate(-199.993 -156.085)" fill="#5b8def"/>
        <path id="패스_100" data-name="패스 100" d="M331.136,162.07a.572.572,0,0,0-.57-.57h-1.33a.572.572,0,0,0-.57.57v.95a.572.572,0,0,0,.57.57h1.33a.572.572,0,0,0,.57-.57Z" transform="translate(-317.742 -156.085)" fill="#5b8def"/>
        <path id="패스_101" data-name="패스 101" d="M122.973,3.8a.572.572,0,0,0,.57-.57V.57a.572.572,0,0,0-.57-.57h-.57a.572.572,0,0,0-.57.57V3.23a.572.572,0,0,0,.57.57Z" transform="translate(-117.843 0)" fill="#5b8def"/>
        <path id="패스_102" data-name="패스 102" d="M318.473,0h-.57a.572.572,0,0,0-.57.57V3.23a.572.572,0,0,0,.57.57h.57a.572.572,0,0,0,.57-.57V.57A.572.572,0,0,0,318.473,0Z" transform="translate(-306.788)" fill="#5b8def"/>
      </g>
    </g>
    <text id="_2022-11-29" data-name="2022-11-29" transform="translate(981 2137)" fill="#353535" font-size="12" font-family="SegoeUI, Segoe UI"><tspan x="-30.674" y="0">2022-11-29</tspan></text>
    <text id="_2023-11-29" data-name="2023-11-29" transform="translate(981 2185)" fill="#353535" font-size="12" font-family="SegoeUI, Segoe UI"><tspan x="-30.674" y="0">2023-11-29</tspan></text>
    <g transform="matrix(1, 0, 0, 1, 796.3, 1785.51)" filter="url(#사각형_874)">
      <rect id="사각형_874-2" data-name="사각형 874" width="223" height="55" rx="16" transform="translate(53.14 445.49)" fill="#5b8def"/>
    </g>
    <text id="보험료_비교" data-name="보험료 비교" transform="translate(961.434 2269)" fill="#fff" font-size="25" font-family="MalgunGothicBold, Malgun Gothic"><tspan x="-65.948" y="0">보험료</tspan><tspan y="0" font-family="SegoeUI-Bold, Segoe UI" font-weight="700"> </tspan><tspan y="0">비교</tspan></text>
  </g>
</svg>
