<svg xmlns="http://www.w3.org/2000/svg" width="363.399" height="320.932" viewBox="0 0 363.399 320.932">
  <g id="undraw_online_stats_0g94" transform="translate(0.001)">
    <path id="패스_361" data-name="패스 361" d="M452.537,362.7H118.958c-7.134,0-12.938-6.144-12.938-13.7V306.5H465.475V349c0,7.552-5.8,13.7-12.938,13.7Z" transform="translate(-102.076 -98.978)" fill="#e6e6e6"/>
    <rect id="사각형_128" data-name="사각형 128" width="85.067" height="64.322" transform="translate(141.777 256.61)" fill="#e6e6e6"/>
    <rect id="사각형_129" data-name="사각형 129" width="95.3" height="8.125" transform="translate(136.661 312.807)" fill="#e6e6e6"/>
    <path id="패스_362" data-name="패스 362" d="M465.155,225.465H106.02V9.4A9.161,9.161,0,0,1,114.9,0H456.277a9.161,9.161,0,0,1,8.879,9.4V225.465Z" transform="translate(-102.076)" fill="#3f3d56"/>
    <ellipse id="타원_49" data-name="타원 49" cx="2.558" cy="2.708" rx="2.558" ry="2.708" transform="translate(181.752 2.37)" fill="#fff"/>
    <rect id="사각형_130" data-name="사각형 130" width="342.186" height="203.798" transform="translate(12.258 9.818)" fill="#fff"/>
    <ellipse id="타원_50" data-name="타원 50" cx="29.175" cy="30.884" rx="29.175" ry="30.884" transform="translate(285.222 102.022)" fill="#5b8def"/>
    <g id="그룹_28" data-name="그룹 28" transform="translate(-0.001 106.347)">
      <path id="패스_364" data-name="패스 364" d="M128.876,188.965l-3.687,13.658,14.745.976-.921-16.1Z" transform="translate(-108.984 -166.896)" fill="#ffb6b6"/>
      <g id="그룹_27" data-name="그룹 27">
        <g id="그룹_25" data-name="그룹 25" transform="translate(26.188 32.697)">
          <path id="uuid-a6c07e27-609a-42c1-9803-308006772003-1113" d="M216.236,265.248c3.5,1.265,6.952.378,7.712-1.979s-1.461-5.293-4.961-6.558a8.773,8.773,0,0,0-4.347-.481l-14.89-5.16-2.138,7.448,14.906,4.3a9.189,9.189,0,0,0,3.719,2.433Z" transform="translate(-161.273 -220.122)" fill="#ffb6b6"/>
          <path id="패스_365" data-name="패스 365" d="M146.35,205.361s-9.23,11.755-3.89,16.618,29.186,22.868,29.186,22.868l9.3,1.532,2.378-9.513L162.328,220.4Z" transform="translate(-140.797 -205.361)" fill="#5b8def"/>
        </g>
        <path id="패스_366" data-name="패스 366" d="M187.716,389.114l5.13,20.124,8.147-1.6-1.811-20.762Z" transform="translate(-131.519 -231.281)" fill="#ffb6b6"/>
        <path id="패스_367" data-name="패스 367" d="M194.563,415.876l-3.017.639-2.414,8.624s3.923,1.6,3.923,4.791,1.509,5.43,7.544,5.111,6.638,0,6.638-2.555-4.526-15.971-4.526-15.971.3-5.43-3.319-5.111-4.828,4.472-4.828,4.472Z" transform="translate(-132.029 -239.197)" fill="#2f2e41"/>
        <path id="패스_368" data-name="패스 368" d="M144.589,389.718l.35,20.84,8.269.55,3.016-20.6Z" transform="translate(-115.976 -232.198)" fill="#ffb6b6"/>
        <path id="패스_369" data-name="패스 369" d="M143.258,417.617l-3.074-.158-4.324,7.743s3.438,2.56,2.7,5.658.215,5.656,6.142,6.9,6.439,1.71,7.026-.769-.719-16.657-.719-16.657,1.541-5.189-2.045-5.812-5.711,3.094-5.711,3.094Z" transform="translate(-112.83 -240.186)" fill="#2f2e41"/>
        <path id="패스_370" data-name="패스 370" d="M138.18,205.11l-16.294-1.278-3.621,4.791s-1.81,32.261-.6,35.456.3,21.4.3,21.4l41.076-3.034-9.091-23.158.3-13.416-8.147-16.29-3.923-4.472Z" transform="translate(-106.122 -172.17)" fill="#5b8def"/>
        <path id="패스_371" data-name="패스 371" d="M118.519,284.976s-6.638,10.221-4.224,15.652,18.788,36.959,18.788,36.959l-2.112,29.387,14.484-1.278,2.414-31.623-10.037-25.78,1.81-2.875L154.728,324.9l5.431,33.859,14.484-1.917-7.845-49.51-9.169-19.083-39.11-3.277Z" transform="translate(-104.867 -198.374)" fill="#2f2e41"/>
        <ellipse id="타원_51" data-name="타원 51" cx="5.594" cy="5.922" rx="5.594" ry="5.922" transform="translate(6.639 1.535)" fill="#2f2e41"/>
        <ellipse id="타원_52" data-name="타원 52" cx="12.183" cy="12.897" rx="12.183" ry="12.897" transform="translate(12.969 3.617)" fill="#ffb6b6"/>
        <path id="패스_372" data-name="패스 372" d="M127.179,187.722c-1.295.726-4.938-1.94-6.242-5.512-.839-2.3-2.878-1.916-4.179-4.781-.758-1.67,1.506-3.3,1.132-4.747a9.257,9.257,0,0,1,.28-5.243c.933-2.475,2.308-2.418,3.417-5.3.668-1.734.239-1.938.8-2.825,1.62-2.561,6.318-2.658,9.633-1.447,1.147.419,3.909-1.826,6.152-.2,2.642,1.917,4.4,7.441,4,8.453-.246.615-1.614-.012-4.458.462-2.634.438.842,2.521-2.122,3.231-3.505.84-4.561.073-5.532,1.247a5.023,5.023,0,0,0-.28,5.243c.465.74,1.064,1,.989,1.516-.137.94-.926.429-1.185,1.426-.3,1.16,2.2,2.681,1.979,3.031-.044.071-.231.147-2.669-.847-.973-.4-1.349-.74-1.458-.613-.177.205-1.052,2.265-.058,3.141,1.548,1.363.475,1.9,1.181,2.972.728,1.1-.554.329-1.377.791Z" transform="translate(-105.889 -157.069)" fill="#2f2e41"/>
        <g id="그룹_26" data-name="그룹 26" transform="translate(0 37.092)">
          <path id="uuid-cdcc4a7b-c7e9-4136-bdd1-e7c84b73eb6c-1114" d="M131.767,301.886c1.944,3.329,5.143,4.966,7.144,3.656s2.047-5.071.1-8.4a9.553,9.553,0,0,0-3.069-3.294l-8.406-14-6.12,4.316,8.937,13.339A10.183,10.183,0,0,0,131.767,301.886Z" transform="translate(-107.625 -233.811)" fill="#ffb6b6"/>
          <path id="패스_373" data-name="패스 373" d="M112.9,211.852s-14.182,2.875-12.975,10.221,8.826,37.285,8.826,37.285l6.262,7.433,7.544-5.75-6.337-26.831L112.9,211.852Z" transform="translate(-99.853 -211.852)" fill="#5b8def"/>
        </g>
      </g>
    </g>
    <g id="그룹_29" data-name="그룹 29" transform="translate(278.575 118.006)">
      <path id="패스_374" data-name="패스 374" d="M619.649,214.875c-.558-1-2.97.07-3.414-.833s1.8-2.272,3.08-5.405c.231-.565,1.686-4.126.609-5.224-2.042-2.083-11.388,6.512-14.658,3.7-.718-.617-1.219-1.849-3.391-3.85-.864-.8-1.387-1.155-1.892-1.021-.718.19-.774,1.206-1.544,3.205-1.154,3-1.837,2.817-2.509,5.209-.5,1.776-.385,2.808-.973,3.009-.831.285-1.6-1.6-2.649-1.43-1.075.172-1.725,2.365-1.93,4.007-.385,3.081.683,5.114,1.276,7.252a19.232,19.232,0,0,1-.461,10.858l-14.715,43.889c3.249-9.006,12.655-33.693,16.608-42.868,1.141-2.648,2.4-5.335,4.988-6.395,2.491-1.021,5.911-.411,10.272-1.523.509-.13,1.923-.51,2.1-1.39.147-.727-.684-1.134-.556-1.815.171-.914,1.806-.925,3.815-1.98a11.967,11.967,0,0,0,3.058-2.388c.229-.229,3.63-3.679,2.887-5Z" transform="translate(-550.204 -183.306)" fill="#e6e6e6"/>
      <path id="패스_375" data-name="패스 375" d="M546.951,253.383c-.622,0-.824,1.564-1.371,1.533s-.534-1.59-1.617-3.16c-.2-.283-1.426-2.067-2.247-1.824-1.555.46-.266,7.8-2.514,8.683a23.686,23.686,0,0,0-2.764.651c-.618.219-.936.387-1.02.689-.119.428.336.75,1.041,1.727,1.057,1.464.776,1.767,1.691,2.806.679.772,1.191,1.01,1.115,1.373-.108.514-1.2.368-1.427.964s.6,1.578,1.3,2.159a7.983,7.983,0,0,0,3.73,1.429,9.736,9.736,0,0,1,4.9,3.372l16.1,20.309c-3.238-4.286-11.97-16.3-15.084-21-.9-1.357-1.78-2.787-1.526-4.436.245-1.589,1.515-3.19,2.257-5.776.087-.3.318-1.146-.039-1.493-.295-.286-.723.028-1-.235-.374-.353.092-1.205.183-2.553a7.569,7.569,0,0,0-.225-2.278c-.04-.185-.658-2.947-1.487-2.944h0Z" transform="translate(-535.4 -198.709)" fill="#e6e6e6"/>
      <path id="패스_376" data-name="패스 376" d="M572.664,252.045l-.375-3.544.171-.269a6.81,6.81,0,0,0,1.2-3.607c0-.183-.007-.366-.016-.553a5.841,5.841,0,0,1,.38-2.729c.254-.6.967-1.98,2.038-1.809a1.19,1.19,0,0,1,.672.347l.076-.127a3.822,3.822,0,0,1,.853-.992,4.445,4.445,0,0,0,.714-.765c.139-.183.247-.344.339-.479A1.572,1.572,0,0,1,580,236.63c.682.034,1.039.631,1.276,1.027a8.765,8.765,0,0,1,.741,1.55,2.74,2.74,0,0,0,.125.3c.22.342,2.007.022,2.68-.094,1.512-.267,2.821-.5,3.36.512.386.722.1,1.677-.879,2.914a5.609,5.609,0,0,1-.917.907,1.179,1.179,0,0,1,.538.744h0c.2.859-.494,1.72-2.072,2.562a5.378,5.378,0,0,1-1.659.626,6.164,6.164,0,0,1-.93.087,1.217,1.217,0,0,1-.137.525,1.62,1.62,0,0,1-1.724.734,12.831,12.831,0,0,1-2.44-.416,5.617,5.617,0,0,0-1.541-.243c-.761.065-1.348.71-2.037,1.547l-1.719,2.127h0Z" transform="translate(-548.695 -194.42)" fill="#e6e6e6"/>
      <path id="패스_377" data-name="패스 377" d="M566.6,221.931l-3.143,1.283-.289-.107a5.872,5.872,0,0,0-3.6-.316c-.168.046-.333.1-.5.156a4.969,4.969,0,0,1-2.59.3c-.61-.108-2.054-.488-2.17-1.628a1.347,1.347,0,0,1,.147-.777l-.135-.046a3.621,3.621,0,0,1-1.123-.621,4.259,4.259,0,0,0-.88-.538c-.2-.1-.377-.166-.524-.225a1.606,1.606,0,0,1-1.136-1.083,1.825,1.825,0,0,1,.614-1.567,8.227,8.227,0,0,1,1.229-1.152,2.581,2.581,0,0,0,.247-.206c.257-.312-.489-2.061-.766-2.72-.628-1.481-1.171-2.762-.385-3.57.562-.579,1.507-.527,2.886.16a5.437,5.437,0,0,1,1.061.708,1.179,1.179,0,0,1,.544-.74h0c.733-.426,1.7.069,2.866,1.472a5.916,5.916,0,0,1,.993,1.54,7.173,7.173,0,0,1,.316.93,1.043,1.043,0,0,1,.515.007c.563.147.944.673,1.108,1.579a15.118,15.118,0,0,1,.239,2.6,6.615,6.615,0,0,0,.169,1.639c.253.763.991,1.2,1.93,1.693l2.38,1.221h0Z" transform="translate(-540.886 -185.407)" fill="#e6e6e6"/>
      <path id="패스_378" data-name="패스 378" d="M572.664,205.461l-.375-3.544.171-.269a6.81,6.81,0,0,0,1.2-3.607c0-.183-.007-.366-.016-.553a5.841,5.841,0,0,1,.38-2.729c.254-.6.967-1.98,2.038-1.809a1.191,1.191,0,0,1,.672.347l.076-.127a3.822,3.822,0,0,1,.853-.993,4.444,4.444,0,0,0,.714-.765c.139-.183.247-.344.339-.479a1.572,1.572,0,0,1,1.278-.888c.682.034,1.039.631,1.276,1.027a8.767,8.767,0,0,1,.741,1.55,2.742,2.742,0,0,0,.125.3c.22.342,2.007.022,2.68-.094,1.512-.267,2.821-.5,3.36.512.386.722.1,1.677-.879,2.914a5.611,5.611,0,0,1-.917.907,1.179,1.179,0,0,1,.538.744h0c.2.859-.494,1.72-2.072,2.562a5.378,5.378,0,0,1-1.659.626,6.169,6.169,0,0,1-.93.087,1.217,1.217,0,0,1-.137.525,1.619,1.619,0,0,1-1.724.734,12.83,12.83,0,0,1-2.44-.416,5.613,5.613,0,0,0-1.541-.243c-.761.065-1.348.71-2.037,1.547l-1.719,2.127h0Z" transform="translate(-548.695 -179.377)" fill="#e6e6e6"/>
      <path id="패스_379" data-name="패스 379" d="M572.85,274.455l-.7-.465-.17-.857.17.857-.818.1c-.013-.08-.057-.265-.125-.554a130.452,130.452,0,0,1-2.413-14,150.949,150.949,0,0,1-1.094-16.2c-.076-5.459.168-9.591.364-12.913.148-2.505.327-4.891.5-7.214a142.77,142.77,0,0,0,.582-18.565,18.019,18.019,0,0,0-1.891-7.676,16.094,16.094,0,0,0-3.955-4.911l1.031-1.372a17.851,17.851,0,0,1,4.375,5.442,19.733,19.733,0,0,1,2.093,8.426,144.163,144.163,0,0,1-.586,18.8c-.175,2.315-.354,4.69-.5,7.185-.194,3.291-.436,7.387-.36,12.776a149.116,149.116,0,0,0,1.079,16,128.417,128.417,0,0,0,2.381,13.809c.192.833.233,1.008.036,1.338h0Z" transform="translate(-545.456 -179.582)" fill="#e6e6e6"/>
      <path id="패스_380" data-name="패스 380" d="M554.984,189.544c-.068,0-.137,0-.206-.007-1.41-.08-2.715-.974-3.88-2.654a12.64,12.64,0,0,1-1.384-3.491,22.96,22.96,0,0,1-.762-3.619,3.746,3.746,0,0,1,.091-2.26,2.585,2.585,0,0,1,1.166-1.128,1.044,1.044,0,0,1,.065-.517c.282-.731,1.032-.635,1.438-.589a3.847,3.847,0,0,0,.738.048,2.005,2.005,0,0,0,1.022-.365,4.461,4.461,0,0,1,1.384-.577,4.68,4.68,0,0,1,2.6.219c1.79.631,2.673,2.1,3.695,3.811a13.776,13.776,0,0,1,1.364,3.3,4.136,4.136,0,0,1,.186,2.187c-.2.837-.685,1.316-1.906,2.373a22.355,22.355,0,0,1-2.465,2,6.015,6.015,0,0,1-3.15,1.273Z" transform="translate(-540.172 -174.288)" fill="#e6e6e6"/>
    </g>
    <g id="그룹_30" data-name="그룹 30" transform="translate(80.998 57.889)">
      <path id="패스_381" data-name="패스 381" d="M365.856,209.541H235.975c-5.229,0-9.482-4.5-9.482-10.038V95.537c0-5.535,4.254-10.038,9.482-10.038H365.856c5.229,0,9.482,4.5,9.482,10.038V199.5c0,5.535-4.254,10.038-9.482,10.038Z" transform="translate(-226.493 -85.5)" fill="#fff"/>
      <path id="패스_382" data-name="패스 382" d="M365.856,209.541H235.975c-5.229,0-9.482-4.5-9.482-10.038V95.537c0-5.535,4.254-10.038,9.482-10.038H365.856c5.229,0,9.482,4.5,9.482,10.038V199.5c0,5.535-4.254,10.038-9.482,10.038ZM235.975,87.176a8.149,8.149,0,0,0-7.9,8.362V199.5a8.149,8.149,0,0,0,7.9,8.362H365.856a8.149,8.149,0,0,0,7.9-8.362V95.537a8.149,8.149,0,0,0-7.9-8.362H235.975Z" transform="translate(-226.493 -85.5)" fill="#3f3d56"/>
      <ellipse id="타원_53" data-name="타원 53" cx="2.375" cy="2.514" rx="2.375" ry="2.514" transform="translate(122.719 7.543)" fill="#3f3d56"/>
      <ellipse id="타원_54" data-name="타원 54" cx="2.375" cy="2.514" rx="2.375" ry="2.514" transform="translate(129.052 7.543)" fill="#3f3d56"/>
      <ellipse id="타원_55" data-name="타원 55" cx="2.375" cy="2.514" rx="2.375" ry="2.514" transform="translate(135.386 7.543)" fill="#3f3d56"/>
      <path id="패스_383" data-name="패스 383" d="M246.867,160.39a1.225,1.225,0,0,0-1.188,1.257,1.255,1.255,0,0,0,.347.881,1.129,1.129,0,0,0,.84.376H369.586a1.225,1.225,0,0,0,1.188-1.257,1.255,1.255,0,0,0-.347-.882,1.129,1.129,0,0,0-.84-.376Z" transform="translate(-233.408 -109.684)" fill="#e6e6e6"/>
      <path id="패스_384" data-name="패스 384" d="M347.194,159.771v3.352H246.644a1.507,1.507,0,0,1-1.116-.495,1.687,1.687,0,0,1-.467-1.182,1.637,1.637,0,0,1,1.583-1.676h100.55Z" transform="translate(-233.184 -109.484)" fill="#5b8def"/>
      <path id="패스_385" data-name="패스 385" d="M425.6,147.289H409.767a3.358,3.358,0,0,1,0-6.7H425.6a3.358,3.358,0,0,1,0,6.7Z" transform="translate(-291.404 -103.288)" fill="#e6e6e6"/>
      <path id="패스_386" data-name="패스 386" d="M263.443,121.294H247.608a3.358,3.358,0,0,1,0-6.7h15.835a3.358,3.358,0,0,1,0,6.7Z" transform="translate(-232.961 -94.894)" fill="#e6e6e6"/>
      <path id="패스_387" data-name="패스 387" d="M246.867,216.094a1.225,1.225,0,0,0-1.188,1.257,1.255,1.255,0,0,0,.347.882,1.129,1.129,0,0,0,.84.376H369.586a1.225,1.225,0,0,0,1.188-1.257,1.255,1.255,0,0,0-.347-.881,1.129,1.129,0,0,0-.84-.376Z" transform="translate(-233.408 -127.672)" fill="#e6e6e6"/>
      <path id="패스_388" data-name="패스 388" d="M286.231,215.475v3.352H246.644a1.507,1.507,0,0,1-1.116-.495,1.687,1.687,0,0,1-.467-1.182,1.637,1.637,0,0,1,1.583-1.676h39.587Z" transform="translate(-233.185 -127.472)" fill="#5b8def"/>
      <path id="패스_389" data-name="패스 389" d="M425.6,202.993H409.767a3.358,3.358,0,0,1,0-6.7H425.6a3.358,3.358,0,0,1,0,6.7Z" transform="translate(-291.404 -121.277)" fill="#e6e6e6"/>
    </g>
  </g>
</svg>
