<svg xmlns="http://www.w3.org/2000/svg" width="586.389" height="216.277" viewBox="0 0 586.389 216.277">
  <g id="layer1" transform="translate(-2547.401 -233.467)">
    <g id="그룹_196" data-name="그룹 196" transform="translate(2759.757 288.722)">
      <path id="패스_535" data-name="패스 535" d="M155.52,877.522l-12.745.789a141.321,141.321,0,0,0-46.134,12.374A130.855,130.855,0,0,0,76.483,902.4Q70.97,904.75,50.1,926.675q-38.638,49.03-30.683,108.37l272.173,0q8-59.34-30.652-108.37Q220.569,879.27,155.52,877.522Z" transform="translate(-18.059 -877.522)" fill="rgba(249,253,255,0.19)"/>
    </g>
    <g id="그룹_197" data-name="그룹 197" transform="translate(2897.691 408.418)">
      <path id="패스_536" data-name="패스 536" d="M659.485,1392.753c18.828,3.645,25.023-34.929,9.5-38.8l-94.349,2.225c18.585,9.489,7.681,35.3-10.463,35.148l95.317,1.429Z" transform="translate(-564.169 -1353.95)" fill="#fff"/>
    </g>
    <g id="그룹_198" data-name="그룹 198" transform="translate(2898.312 408.29)">
      <path id="패스_537" data-name="패스 537" d="M670.555,1353.74c-13.553,0-9.218,16.286-6.614,19.7l-95.261.573c-4.293-6-2.067-17.185,8.677-18.1l93.2-2.172Z" transform="translate(-566.627 -1353.74)" fill="#ffd484"/>
    </g>
    <g id="그룹_199" data-name="그룹 199" transform="translate(2887.78 261.914)">
      <path id="패스_538" data-name="패스 538" d="M530.877,779.786c40.277,7.032-30.445,170.765,3.675,175.493L631.88,956.8c-45.568-14.644,37.528-174.234-2.221-186.278l-98.782,9.264Z" transform="translate(-524.927 -770.524)" fill="#fff"/>
    </g>
    <g id="그룹_200" data-name="그룹 200" transform="translate(2884.811 270.232)">
      <path id="패스_539" data-name="패스 539" d="M619.78,807.05c2.811,2.4,8.484,14.453-.89,17.317l-105.715,8.608c10.572-6.72,5.749-12.172,2.469-16.036l104.133-9.889Z" transform="translate(-513.175 -807.05)" fill="#fff"/>
    </g>
    <g id="그룹_201" data-name="그룹 201" transform="translate(2881.231 261.353)">
      <path id="패스_540" data-name="패스 540" d="M607.6,771.756c-10.611,7.331-7.932,24.509-1.486,26.309l-102.682,8.557c-4.478.545-9.783-23.685,7.5-26.077l96.663-8.789Z" transform="translate(-499.001 -771.756)" fill="#ffd484"/>
    </g>
    <g id="그룹_202" data-name="그룹 202" transform="translate(2547.401 445.994)">
      <path id="패스_541" data-name="패스 541" d="M592.255,1505.639a62.81,62.81,0,0,1-7.82.418q-6.047.167-15.718.314-2.568.083-37.163.408-15.109.126-33.841.235-7.954.073-62.64.288-22.318.073-46.268.12-47.9.1-102.331.089-84.242-.037-146.507-.293-41.6-.173-73.681-.434-10.66-.057-38.552-.418-19.35-.3-21.76-.633.165-.439,6.964-.518,12.092-.324,38.682-.591,36.408-.319,48.039-.366,38.778-.225,85.366-.35,10.547-.052,73.076-.125,83.182-.073,155.323.131,55.87.172,64.188.235,39.687.2,67.988.471,49.01.528,46.657,1.02" transform="translate(-5.974 -1503.763)" fill="rgba(0,0,0,0.53)"/>
    </g>
    <g id="그룹_203" data-name="그룹 203" transform="translate(2902.33 313.343)">
      <path id="패스_542" data-name="패스 542" d="M661.2,976.51q-.608,0-5.687.108-8.215.19-21.915.61-31.075.979-37.627,1.384l-.3.04a4.281,4.281,0,0,0,.718.024l.475,0h0a.665.665,0,0,0,.083,0q.608,0,5.687-.108,8.215-.19,21.914-.61,31.075-.979,37.627-1.384l.3-.04a4.258,4.258,0,0,0-.719-.024l-.476,0A.529.529,0,0,0,661.2,976.51Zm-1.09,13.985q-.424,0-1.085.008-4.33.078-7.03.146-7.844.192-20.021.563-34.953,1.111-37.931,1.424a3.1,3.1,0,0,0,.741.023q.424,0,1.087-.005,4.33-.078,7.03-.147,7.844-.192,20.021-.566,11.721-.356,26.959-.909,7.756-.293,10.668-.475l.3-.04A3.117,3.117,0,0,0,660.108,990.5Zm-2.4,11.881q-.607,0-5.687.109-8.215.189-21.914.609-31.075.98-37.627,1.384l-.3.04a4.44,4.44,0,0,0,.719.023h.559q.609,0,5.687-.106,8.215-.192,21.914-.611,31.075-.978,37.627-1.384l.3-.04a4.453,4.453,0,0,0-.72-.023l-.475,0A.45.45,0,0,0,657.707,1002.376Zm-1.09,13.985q-.424,0-1.086.005-4.329.081-7.03.149-7.844.19-20.021.563-34.952,1.109-37.931,1.425a3.113,3.113,0,0,0,.742.023q.424,0,1.086-.005,4.329-.078,7.03-.146,7.844-.192,20.021-.566,11.721-.359,26.959-.909,7.756-.293,10.668-.475l.3-.04A3.1,3.1,0,0,0,656.617,1016.361ZM653.2,1028.95q-.608,0-5.687.109-8.215.192-21.915.611-31.075.977-37.627,1.384l-.3.041a4.47,4.47,0,0,0,.718.023l.475,0h0a.5.5,0,0,0,.083,0q.608,0,5.687-.109,8.215-.189,21.914-.609,31.075-.98,37.627-1.384l.3-.041a4.471,4.471,0,0,0-.721-.023h-.474A.472.472,0,0,0,653.2,1028.95Zm-1.09,13.988q-.424,0-1.085.005-4.33.078-7.031.146-7.844.192-20.021.566-34.952,1.109-37.931,1.425a3.111,3.111,0,0,0,.742.023q.424,0,1.086-.005,4.329-.081,7.03-.146,7.844-.192,20.021-.566,11.721-.359,26.959-.912,7.756-.293,10.668-.472l.3-.04A3.125,3.125,0,0,0,652.106,1042.937Zm-2.4,11.879q-.608,0-5.687.109-8.215.19-21.914.611-31.075.978-37.627,1.384l-.3.04a4.4,4.4,0,0,0,.718.023l.475,0h0a.473.473,0,0,0,.083,0q.609,0,5.687-.109,8.215-.189,21.914-.609,31.075-.98,37.627-1.384l.3-.04a4,4,0,0,0-.72-.025l-.475,0A.456.456,0,0,0,649.7,1054.816Zm-1.09,13.988q-.424,0-1.085.005-4.329.078-7.03.147-7.844.192-20.021.566-34.952,1.109-37.931,1.425a3.112,3.112,0,0,0,.742.023q.424,0,1.086-.005,4.329-.081,7.03-.149,7.844-.189,20.021-.563,11.721-.359,26.959-.912,7.756-.293,10.668-.472l.3-.04A3.118,3.118,0,0,0,648.614,1068.8Z" transform="translate(-582.535 -976.51)" fill="rgba(0,0,0,0.23)"/>
    </g>
    <g id="그룹_204" data-name="그룹 204" transform="translate(2902.345 313.709)">
      <path id="패스_543" data-name="패스 543" d="M661.26,977.957q-.608,0-5.687.108-8.216.19-21.915.61-31.075.979-37.627,1.384l-.3.04a4.235,4.235,0,0,0,.718.024l.475,0h0a.671.671,0,0,0,.083,0q.608,0,5.687-.108,8.215-.19,21.914-.61,31.075-.979,37.627-1.385l.3-.04a4.3,4.3,0,0,0-.719-.023l-.476,0A.575.575,0,0,0,661.26,977.957Zm-1.09,13.986q-.424,0-1.085.005-4.33.078-7.03.147-7.844.192-20.021.566-34.952,1.109-37.931,1.424a3.1,3.1,0,0,0,.741.023q.424,0,1.087-.005,4.329-.078,7.03-.146,7.844-.192,20.021-.566,11.721-.359,26.959-.912,7.756-.293,10.668-.472l.3-.04A3.114,3.114,0,0,0,660.17,991.943Zm-2.4,11.879q-.607,0-5.687.109-8.216.189-21.915.611-31.075.977-37.627,1.384l-.3.04a4.447,4.447,0,0,0,.719.023l.474,0h0a.487.487,0,0,0,.083,0q.609,0,5.686-.109,8.216-.189,21.915-.609,31.075-.98,37.627-1.384l.3-.04a4.459,4.459,0,0,0-.72-.023h-.475A.472.472,0,0,0,657.769,1003.821Zm-1.09,13.988q-.424,0-1.086.005-4.329.078-7.03.146-7.844.192-20.021.566-34.952,1.109-37.931,1.424a3.1,3.1,0,0,0,.742.023q.424,0,1.086-.005,4.329-.081,7.03-.147,7.844-.192,20.021-.566,11.721-.359,26.959-.912,7.756-.293,10.668-.472l.3-.04A3.117,3.117,0,0,0,656.679,1017.809Zm-3.421,12.588q-.608,0-5.687.109-8.215.19-21.915.609-31.075.98-37.627,1.387l-.3.038a4,4,0,0,0,.718.025l.475,0h0a.454.454,0,0,0,.083,0q.608,0,5.687-.109,8.215-.189,21.914-.611,31.075-.978,37.627-1.384l.3-.038a4.006,4.006,0,0,0-.721-.025l-.474,0A.483.483,0,0,0,653.258,1030.4Zm-1.09,13.985q-.424,0-1.085.008-4.33.078-7.031.146-7.844.192-20.021.566-34.952,1.109-37.931,1.422a2.8,2.8,0,0,0,.742.025q.424,0,1.086-.008,4.329-.078,7.031-.146,7.844-.192,20.021-.563,11.721-.359,26.959-.912,7.756-.293,10.668-.475l.3-.038A2.8,2.8,0,0,0,652.168,1044.382Zm-2.4,11.881q-.608,0-5.687.109-8.215.189-21.914.609-31.075.98-37.627,1.384l-.3.04a3.988,3.988,0,0,0,.718.025l.475,0h0a.508.508,0,0,0,.083,0q.609,0,5.686-.109,8.216-.189,21.915-.611,31.075-.977,37.627-1.384l.3-.04a4.423,4.423,0,0,0-.72-.023l-.475,0A.468.468,0,0,0,649.767,1056.264Zm-1.09,13.985q-.423,0-1.085.008-4.329.078-7.03.146-7.844.192-20.021.563-34.952,1.111-37.931,1.424a2.778,2.778,0,0,0,.742.025q.424,0,1.086-.008,4.329-.078,7.03-.146,7.844-.192,20.021-.566,11.721-.356,26.959-.909,7.756-.293,10.668-.475l.3-.04A3.142,3.142,0,0,0,648.676,1070.249Z" transform="translate(-582.597 -977.957)" fill="rgba(0,0,0,0.23)"/>
    </g>
    <g id="그룹_205" data-name="그룹 205" transform="translate(2902.37 314.107)">
      <path id="패스_544" data-name="패스 544" d="M661.357,979.533q-.608,0-5.687.108-8.215.19-21.914.61-31.075.979-37.627,1.384l-.3.04a4.286,4.286,0,0,0,.718.023l.475,0h0a.692.692,0,0,0,.083,0q.608,0,5.687-.108,8.215-.19,21.914-.61,31.075-.979,37.627-1.384l.3-.04a4.311,4.311,0,0,0-.719-.023l-.476,0A.6.6,0,0,0,661.357,979.533Zm-1.09,13.987q-.423,0-1.085.005-4.329.078-7.03.146-7.844.192-20.021.566-34.953,1.109-37.931,1.425a3.1,3.1,0,0,0,.741.023q.424,0,1.087-.008,4.33-.078,7.03-.147,7.844-.192,20.021-.563,11.721-.359,26.959-.912,7.756-.293,10.668-.472l.3-.04A3.118,3.118,0,0,0,660.267,993.52Zm-2.4,11.879q-.608,0-5.687.109-8.216.19-21.915.609-31.075.98-37.627,1.384l-.3.04a4.017,4.017,0,0,0,.72.025l.474,0h0a.487.487,0,0,0,.083,0q.609,0,5.687-.109,8.215-.189,21.914-.611,31.075-.978,37.627-1.384l.3-.038a4,4,0,0,0-.72-.025l-.475,0A.468.468,0,0,0,657.866,1005.4Zm-1.09,13.985q-.424,0-1.086.008-4.329.078-7.03.147-7.844.192-20.021.563-34.952,1.111-37.931,1.424a2.8,2.8,0,0,0,.742.025q.424,0,1.086-.008,4.329-.078,7.03-.146,7.844-.192,20.021-.563,11.721-.359,26.959-.912,7.756-.293,10.668-.475l.3-.038A2.8,2.8,0,0,0,656.776,1019.383Zm-3.422,12.591q-.608,0-5.687.109-8.215.189-21.915.609-31.075.98-37.627,1.384l-.3.041a4.439,4.439,0,0,0,.719.023h.559q.608,0,5.687-.106,8.215-.192,21.914-.611,31.075-.978,37.627-1.384l.3-.041a4.5,4.5,0,0,0-.721-.023l-.474,0A.5.5,0,0,0,653.355,1031.974Zm-1.09,13.985q-.424,0-1.085.005-4.329.081-7.03.146-7.844.192-20.021.566-34.953,1.109-37.931,1.424a3.11,3.11,0,0,0,.742.023q.424,0,1.086-.005,4.33-.078,7.03-.146,7.844-.192,20.021-.566,11.721-.359,26.959-.909,7.756-.3,10.668-.475l.3-.04A3.1,3.1,0,0,0,652.265,1045.959Zm-2.4,11.881q-.608,0-5.687.106-8.216.192-21.915.611-31.075.98-37.627,1.384l-.3.04a4.427,4.427,0,0,0,.718.023l.475,0h0a.47.47,0,0,0,.083,0q.609,0,5.687-.109,8.215-.19,21.914-.609,31.075-.98,37.627-1.384l.3-.04a4.455,4.455,0,0,0-.72-.023h-.558Zm-1.09,13.985q-.424,0-1.086,0-4.329.078-7.03.147-7.844.192-20.021.566-34.952,1.109-37.931,1.425a3.115,3.115,0,0,0,.742.023q.424,0,1.085-.005,4.329-.079,7.03-.147,7.844-.192,20.021-.566,11.721-.359,26.959-.912,7.756-.293,10.668-.472l.3-.04A3.124,3.124,0,0,0,648.774,1071.826Z" transform="translate(-582.694 -979.533)" fill="rgba(0,0,0,0.23)"/>
    </g>
    <g id="그룹_206" data-name="그룹 206" transform="translate(2813.716 342.812)">
      <path id="패스_545" data-name="패스 545" d="M263.877,1093.9l-16.093,25.4-16.093,25.4,9.646,6.112,32.186-50.793-9.646-6.112" transform="translate(-231.692 -1093.9)"/>
    </g>
    <g id="그룹_207" data-name="그룹 207" transform="translate(2798.821 357.374)">
      <path id="패스_546" data-name="패스 546" d="M208.971,1151.36l-18.126,30.1-18.125,30.107,12.119,7.3,36.251-60.209-12.12-7.3" transform="translate(-172.72 -1151.36)" fill="#ff0014"/>
    </g>
    <g id="그룹_208" data-name="그룹 208" transform="translate(2841.571 290.11)">
      <path id="패스_547" data-name="패스 547" d="M350.291,903.579h0c-9.97,14.636-11.7,32.988-1.185,40.146v0c10.512,7.158,26.955-1.169,36.924-15.806h0c9.969-14.638,11.7-32.988,1.185-40.148h0c-10.512-7.16-26.955,1.168-36.925,15.8h0m3.339,2.274h0c9.822-14.421,23.929-19.768,31.311-14.741h0c7.382,5.028,7.572,20.114-2.25,34.533h0c-9.822,14.422-23.929,19.769-31.311,14.74h0C344,935.36,343.808,920.274,353.63,905.853Z" transform="translate(-341.979 -885.165)"/>
    </g>
    <g id="그룹_209" data-name="그룹 209" transform="translate(2780.708 357.721)">
      <path id="패스_548" data-name="패스 548" d="M165.435,1181.767l.328.674c1.8,3.6,2.361,6.138,1.876,7.666a14.878,14.878,0,0,1-4.1,5.85c-.645,4.524-1.714,7.868-3.32,9.941a10.357,10.357,0,0,1-4.046,2.958,43.96,43.96,0,0,1-7.156,2.112,20.223,20.223,0,0,1-5.035,2.96,10.208,10.208,0,0,1-3.172.594c-4.208-.121-8.97-2.607-14.489-7.251-5.633-4.743-14.138-12.753-25.316-24.27l12.3-30.16,14.952,5.819a12.868,12.868,0,0,1,8-4.481c7.728-.768,18.475,1.854,18.475,1.854,6.766,4.918-7.3,8.09-6.168,7.3s5.434.21,6.554.253c5.094.194,7.535.258,7.317.374a15.344,15.344,0,0,1,4.08,1.3,5.423,5.423,0,0,1,3.082,5.231C169.6,1172.228,168.295,1175.986,165.435,1181.767Z" transform="translate(-101.007 -1152.84)" fill="#ffb185"/>
    </g>
    <g id="그룹_210" data-name="그룹 210" transform="translate(2765.99 353.081)">
      <path id="패스_549" data-name="패스 549" d="M57.837,1134.73l10.216,3.958,10.216,3.958-15.1,38.988-20.432-7.916Z" transform="translate(-42.734 -1134.73)" fill="#fff"/>
    </g>
    <g id="그룹_211" data-name="그룹 211" transform="translate(2681.602 317.985)">
      <path id="패스_550" data-name="패스 550" d="M-271.263,995.066l43.7,16.929,43.7,16.928-20.111,51.912-87.393-33.855Z" transform="translate(291.374 -995.066)"/>
    </g>
    <g id="그룹_212" data-name="그룹 212" transform="translate(2843.712 291.245)">
      <path id="패스_551" data-name="패스 551" d="M358.767,908.074h0c-9.97,14.638-11.7,32.987-1.185,40.148h0c10.512,7.161,26.955-1.167,36.924-15.806h0c9.969-14.637,11.7-32.987,1.185-40.147h0c-10.512-7.16-26.955,1.168-36.924,15.8h0m3.339,2.274h0c9.822-14.42,23.929-19.768,31.311-14.741h0c7.382,5.028,7.571,20.114-2.25,34.534h0c-9.822,14.419-23.929,19.769-31.311,14.74h0C352.474,939.854,352.285,924.768,362.107,910.348Z" transform="translate(-350.455 -889.66)"/>
    </g>
    <g id="그룹_213" data-name="그룹 213" transform="translate(2845.612 292.21)">
      <path id="패스_552" data-name="패스 552" d="M366.287,911.892h0c-9.97,14.638-11.7,32.987-1.185,40.148h0c10.512,7.16,26.955-1.169,36.924-15.806h0c9.969-14.637,11.7-32.987,1.185-40.147h0c-10.512-7.16-26.955,1.168-36.924,15.8h0m3.339,2.274h0c9.822-14.421,23.929-19.768,31.311-14.74h0c7.382,5.028,7.572,20.114-2.25,34.535h0c-9.822,14.419-23.929,19.767-31.311,14.74h0C359.994,943.672,359.8,928.586,369.626,914.166Z" transform="translate(-357.975 -893.478)"/>
    </g>
    <g id="그룹_214" data-name="그룹 214" transform="translate(2818.373 366.52)">
      <path id="패스_553" data-name="패스 553" d="M250.133,1188.66h0" transform="translate(-250.133 -1188.66)"/>
    </g>
    <g id="그룹_215" data-name="그룹 215" transform="translate(2816.256 371.604)">
      <path id="패스_554" data-name="패스 554" d="M241.752,1208.79v0h0v0h0v0" transform="translate(-241.752 -1208.79)"/>
    </g>
    <g id="그룹_216" data-name="그룹 216" transform="translate(2885.189 233.467)">
      <path id="패스_555" data-name="패스 555" d="M467.039,739.641h0" transform="translate(-467.039 -739.641)"/>
    </g>
    <g id="그룹_217" data-name="그룹 217" transform="translate(2830.716 357.297)">
      <path id="패스_556" data-name="패스 556" d="M299,1162.644l.56-2.942.56-2.94,3.42-4.771,4.891,3.965-3.453,6.726-5.978-.038" transform="translate(-299 -1151.99)" fill="#ff0014"/>
    </g>
    <g id="그룹_218" data-name="그룹 218" transform="translate(2794.242 320.746)">
      <path id="패스_557" data-name="패스 557" d="M154.593,1007.43h0" transform="translate(-154.593 -1007.43)" fill="red"/>
    </g>
    <g id="그룹_219" data-name="그룹 219" transform="translate(2849.418 296.024)">
      <path id="패스_558" data-name="패스 558" d="M390.067,915.191c6.654-5.3,13.729-7.425,19.033-6.014a.244.244,0,0,1,.121.075h0c6.631,5.744,6.312,20.331-3.109,34.163a46.67,46.67,0,0,1-9.377,10.255c-6.637,5.286-13.694,7.413-18.993,6.024h0a.244.244,0,0,1-.133-.058c-6.663-5.726-6.357-20.337,3.078-34.19A46.654,46.654,0,0,1,390.067,915.191Z" transform="translate(-373.046 -908.752)" fill="rgba(255,255,255,0.24)"/>
    </g>
    <g id="그룹_220" data-name="그룹 220" transform="translate(2667.974 303.918)">
      <path id="패스_559" data-name="패스 559" d="M-345.329,939.61v60.3l13.7,5.425h0l19.175,7.59,25.7-49.5-9.466-3.849L-324.185,948.2Z" transform="translate(345.329 -939.61)"/>
    </g>
    <g id="그룹_230" data-name="그룹 230" transform="translate(2846.609 382.579)">
      <g id="그룹_221" data-name="그룹 221" transform="translate(5.122 20.257)">
        <path id="패스_560" data-name="패스 560" d="M382.205,1331.41h44.769q0,20.964,0,41.925H382.205V1331.41" transform="translate(-382.205 -1331.41)" fill="#637079"/>
      </g>
      <g id="그룹_222" data-name="그룹 222" transform="translate(1.455 17.599)">
        <path id="패스_561" data-name="패스 561" d="M367.812,1365.154a2.6,2.6,0,0,0,2.6,2.586l45.413-.131a2.6,2.6,0,0,0,2.588-2.6l-.128-44.117-50.6.146Zm38.817-37.742a2.6,2.6,0,0,1,2.588-2.6l3.892-.01a2.594,2.594,0,0,1,2.6,2.586l0,1.3a2.6,2.6,0,0,1-2.587,2.6l-3.893.01a2.6,2.6,0,0,1-2.6-2.589Zm.03,10.381a2.6,2.6,0,0,1,2.588-2.6l3.892-.01a2.6,2.6,0,0,1,2.6,2.586l0,1.3a2.6,2.6,0,0,1-2.588,2.6l-3.892.013a2.6,2.6,0,0,1-2.6-2.589Zm.03,10.378a2.6,2.6,0,0,1,2.588-2.6l3.892-.013a2.6,2.6,0,0,1,2.6,2.589l.034,11.677a2.6,2.6,0,0,1-2.588,2.6l-3.892.01a2.6,2.6,0,0,1-2.6-2.586Zm-11.738-20.726a2.6,2.6,0,0,1,2.588-2.6l3.893-.01a2.594,2.594,0,0,1,2.6,2.589l0,1.3a2.6,2.6,0,0,1-2.588,2.6l-3.893.01a2.594,2.594,0,0,1-2.6-2.586Zm.03,10.381a2.592,2.592,0,0,1,2.588-2.6l3.893-.013a2.6,2.6,0,0,1,2.6,2.589l0,1.3a2.593,2.593,0,0,1-2.588,2.6l-3.893.013a2.6,2.6,0,0,1-2.6-2.586Zm.03,10.381a2.6,2.6,0,0,1,2.587-2.6l3.893-.01a2.594,2.594,0,0,1,2.6,2.586l0,1.3a2.592,2.592,0,0,1-2.587,2.6l-3.893.013a2.6,2.6,0,0,1-2.6-2.589Zm.03,10.378a2.6,2.6,0,0,1,2.588-2.6l3.893-.013a2.6,2.6,0,0,1,2.6,2.589l0,1.3a2.6,2.6,0,0,1-2.588,2.6l-3.893.01a2.592,2.592,0,0,1-2.6-2.586Zm-11.768-31.107a2.6,2.6,0,0,1,2.588-2.6l3.893-.01a2.591,2.591,0,0,1,2.6,2.587l0,1.3a2.6,2.6,0,0,1-2.587,2.6l-3.893.012a2.6,2.6,0,0,1-2.6-2.589Zm.031,10.381a2.594,2.594,0,0,1,2.587-2.6l3.893-.013a2.6,2.6,0,0,1,2.6,2.589l0,1.3a2.6,2.6,0,0,1-2.587,2.6l-3.893.01a2.592,2.592,0,0,1-2.6-2.586Zm.03,10.381a2.594,2.594,0,0,1,2.588-2.6l3.893-.013a2.6,2.6,0,0,1,2.6,2.589l0,1.3a2.6,2.6,0,0,1-2.587,2.6l-3.893.013a2.6,2.6,0,0,1-2.6-2.589Zm.03,10.381a2.6,2.6,0,0,1,2.587-2.6l3.893-.01a2.594,2.594,0,0,1,2.6,2.586l0,1.3a2.6,2.6,0,0,1-2.588,2.6l-3.893.01a2.593,2.593,0,0,1-2.6-2.586Zm-11.768-31.107a2.593,2.593,0,0,1,2.588-2.6l3.892-.013a2.593,2.593,0,0,1,2.6,2.586l0,1.3a2.6,2.6,0,0,1-2.588,2.6l-3.892.01a2.6,2.6,0,0,1-2.6-2.589Zm.03,10.381a2.6,2.6,0,0,1,2.587-2.6l3.893-.01a2.594,2.594,0,0,1,2.6,2.586l0,1.3a2.592,2.592,0,0,1-2.588,2.6l-3.892.013a2.6,2.6,0,0,1-2.6-2.586Zm.03,10.381a2.6,2.6,0,0,1,2.587-2.6l3.893-.01a2.593,2.593,0,0,1,2.6,2.586l0,1.3a2.592,2.592,0,0,1-2.588,2.6l-3.893.013a2.6,2.6,0,0,1-2.6-2.589Zm.03,10.378a2.593,2.593,0,0,1,2.587-2.6l3.893-.013a2.6,2.6,0,0,1,2.6,2.589l0,1.3a2.6,2.6,0,0,1-2.588,2.6l-3.893.01a2.593,2.593,0,0,1-2.6-2.586Z" transform="translate(-367.684 -1320.89)" fill="#3c464f"/>
      </g>
      <g id="그룹_223" data-name="그룹 223" transform="translate(42.994 22.808)">
        <path id="패스_562" data-name="패스 562" d="M533.453,1345.407l1.3-.005,0-1.3,1.3-.005,0-1.3-1.3.005,0-1.3-1.3.005,0,1.3-1.3.005,0,1.3,1.3,0Z" transform="translate(-532.148 -1341.51)"/>
      </g>
      <g id="그룹_224" data-name="그룹 224" transform="translate(43.066 48.755)">
        <path id="패스_563" data-name="패스 563" d="M532.431,1444.253l3.893-.013,0,1.3-3.893.01Z" transform="translate(-532.431 -1444.24)"/>
      </g>
      <g id="그룹_225" data-name="그룹 225" transform="translate(43.024 34.482)">
        <path id="패스_564" data-name="패스 564" d="M532.267,1387.743l3.893-.013,0,1.3-3.893.01Z" transform="translate(-532.267 -1387.73)"/>
      </g>
      <g id="그룹_226" data-name="그룹 226" transform="translate(43.073 51.351)">
        <path id="패스_565" data-name="패스 565" d="M532.461,1454.53l3.893-.01,0,1.3-3.893.01Z" transform="translate(-532.461 -1454.52)"/>
      </g>
      <g id="그룹_227" data-name="그룹 227" transform="translate(0)">
        <path id="패스_566" data-name="패스 566" d="M361.924,1251.21v16.476l.105.01,53.668-.01V1251.21l-53.773.013" transform="translate(-361.924 -1251.21)" fill="#3c464f"/>
      </g>
      <g id="그룹_228" data-name="그룹 228" transform="translate(3.172 2.644)">
        <path id="패스_567" data-name="패스 567" d="M374.483,1261.68v11.184l.093.013,47.337-.013V1261.68l-47.429.013" transform="translate(-374.483 -1261.68)" fill="#a6d8ff"/>
      </g>
      <g id="그룹_229" data-name="그룹 229" transform="translate(40.365 21.471)">
        <path id="패스_568" data-name="패스 568" d="M526.925,1337.589l0,1.265a.031.031,0,0,0,.01.023.029.029,0,0,0,.024.01h0l1.264,0,0,1.23-1.264,0a.034.034,0,0,0-.034.035l0,1.263-1.229,0,0-1.263a.031.031,0,0,0-.034-.033h0l-1.263,0,0-1.23,1.264,0a.034.034,0,0,0,.034-.035l0-1.263Zm1.334-1.369h0l0,0-3.893.01a2.628,2.628,0,0,0-2.621,2.637l0,1.3a2.629,2.629,0,0,0,2.629,2.622h.008l3.893-.01a2.629,2.629,0,0,0,2.621-2.637l0-1.3a2.629,2.629,0,0,0-2.63-2.622Z" transform="translate(-521.739 -1336.22)" fill="#7d8b96"/>
      </g>
    </g>
    <g id="그룹_231" data-name="그룹 231" transform="translate(2995.142 385.397)">
      <path id="패스_569" data-name="패스 569" d="M950,1263.38l.609.611.609.609L950,1263.38" transform="translate(-950 -1263.38)"/>
    </g>
    <g id="그룹_232" data-name="그룹 232" transform="translate(2870.719 363.489)">
      <path id="패스_570" data-name="패스 570" d="M459.612,1176.6a1.29,1.29,0,0,0-.141.008l-.075,0a1.99,1.99,0,0,0-1.282.493,1.98,1.98,0,0,0-.463.568,1.739,1.739,0,0,0-.209.7,2.6,2.6,0,0,0-.045.836,1.974,1.974,0,0,0,.238.776,1.493,1.493,0,0,0,.537.551,1.229,1.229,0,0,0,.641.159,1.683,1.683,0,0,0,.179-.01c.034,0,.068,0,.1,0a1.571,1.571,0,0,0,.748-.2,2.2,2.2,0,0,0,.671-.568,3.23,3.23,0,0,0,.417-.775,2.64,2.64,0,0,0,.164-.833,1.507,1.507,0,0,0-.074-.7,1.471,1.471,0,0,0-.328-.551,1.636,1.636,0,0,0-.552-.359A1.468,1.468,0,0,0,459.612,1176.6Z" transform="translate(-457.383 -1176.6)" fill="#fff"/>
    </g>
    <g id="그룹_233" data-name="그룹 233" transform="translate(2777.914 404.532)">
      <path id="패스_571" data-name="패스 571" d="M93.379,1339.12q-.432.045-.939.088a4.644,4.644,0,0,0-.984.164,3.083,3.083,0,0,0-.865.4,1.716,1.716,0,0,0-.6.745,1.043,1.043,0,0,0-.03.492,1.115,1.115,0,0,0,.179.432.951.951,0,0,0,.328.3.885.885,0,0,0,.4.091l.063,0q1.909-.028,3.8-.043l.753,0q1.508,0,3.035.045a1.162,1.162,0,0,0,.153.01A1.491,1.491,0,0,0,99,1341.8a1.517,1.517,0,0,0,.447-.195,1.031,1.031,0,0,0,.313-.344.769.769,0,0,0,.089-.477,1.321,1.321,0,0,0-.3-.745,1.924,1.924,0,0,0-.611-.477,3.165,3.165,0,0,0-.79-.268,4.506,4.506,0,0,0-.805-.076c-.043,0-.086,0-.129,0a1.678,1.678,0,0,1-.259-.02,1.182,1.182,0,0,0-.155-.01,1.094,1.094,0,0,0-.233.025c-.035,0-.069,0-.1,0a1.27,1.27,0,0,1-.3-.035,1.486,1.486,0,0,0-.388,0q-.313,0-.626-.013l-.6-.03a5.73,5.73,0,0,0-.581-.03Z" transform="translate(-89.947 -1339.12)" fill="#fff"/>
    </g>
    <g id="그룹_234" data-name="그룹 234" transform="translate(2866.977 369.768)">
      <path id="패스_572" data-name="패스 572" d="M445.755,1201.48q-.388.046-.865.061a4.987,4.987,0,0,0-.939.088,2.6,2.6,0,0,0-.82.313,1.406,1.406,0,0,0-.566.687,1.639,1.639,0,0,0,.089.551,2.231,2.231,0,0,0,.239.462,1.324,1.324,0,0,0,.373.374.858.858,0,0,0,.492.164q1.924.043,3.832.043t3.832-.058a1.3,1.3,0,0,0,.418-.1,1.265,1.265,0,0,0,.358-.255,1.452,1.452,0,0,0,.253-.343.977.977,0,0,0,.119-.4,1.116,1.116,0,0,0-.3-.791,1.714,1.714,0,0,0-.7-.417,4.239,4.239,0,0,0-.895-.179q-.477-.03-.85-.061a2.224,2.224,0,0,1-.234.013,1.953,1.953,0,0,1-.333-.028,2.106,2.106,0,0,0-.327-.025q-.111,0-.224.01-.373,0-.746-.028t-.731-.015q-.373-.03-.746-.03T445.755,1201.48Z" transform="translate(-442.564 -1201.48)" fill="#fff"/>
    </g>
    <g id="그룹_235" data-name="그룹 235" transform="translate(2821.662 431.057)">
      <path id="패스_573" data-name="패스 573" d="M265.24,1444.07a.67.67,0,0,0-.146.018,1.347,1.347,0,0,0-.82.356,1.418,1.418,0,0,0-.462.76,1.149,1.149,0,0,0,.1.748,4.743,4.743,0,0,0,.4.639q.3.328.626.626t.626.626q-.328.313-.7.626-.358.3-.7.642a6.807,6.807,0,0,0-.611.7,2.766,2.766,0,0,0-.4.8l.045.076.1.283.149.179q.074.03.134.061c.03.019.065.038.1.058a.855.855,0,0,0,.4.225,3.68,3.68,0,0,0,.462.058.406.406,0,0,0,.149.028.452.452,0,0,0,.105-.013l.253-.058a1.353,1.353,0,0,0,.522-.447,6.467,6.467,0,0,1,.418-.523q.268-.3.522-.626a4.6,4.6,0,0,1,.552-.626q.3.374.6.73t.6.732a6.371,6.371,0,0,0,.6.551,1.493,1.493,0,0,0,.746.313,1.744,1.744,0,0,0,.418-.225.76.76,0,0,0,.3-.341.9.9,0,0,0,.253-.4q.06-.222.134-.432a1.1,1.1,0,0,0,0-.508q-.432-.478-.895-.94-.462-.447-.969-.848.566-.417,1.089-.879t1.059-.9a.735.735,0,0,0,.224-.3.9.9,0,0,0,.075-.344,1.49,1.49,0,0,0-.328-.745,1.091,1.091,0,0,0-.656-.4h-.047a1.3,1.3,0,0,0-.773.253q-.358.268-.686.538-.343.371-.7.715t-.746.687q-.432-.553-.85-1.119t-.79-1.119a3.138,3.138,0,0,0-.283-.195A.407.407,0,0,0,265.24,1444.07Z" transform="translate(-263.155 -1444.07)" fill="#fff"/>
    </g>
    <g id="그룹_236" data-name="그룹 236" transform="translate(2777.447 409.455)">
      <path id="패스_574" data-name="패스 574" d="M90.982,1358.61q-.306,0-.628.028-.537.045-1.208.164a2.225,2.225,0,0,0-.373.134,1.6,1.6,0,0,0-.358.195,1.141,1.141,0,0,0-.253.283.589.589,0,0,0-.06.374,1.584,1.584,0,0,0,.119.52,1.668,1.668,0,0,0,.283.462,1.424,1.424,0,0,0,.418.313,1.344,1.344,0,0,0,.537.134q1.67.121,3.355.134l.372,0q1.489,0,3.013-.106a2.536,2.536,0,0,0,.507-.089,1.876,1.876,0,0,0,.507-.194,1.53,1.53,0,0,0,.418-.344,1.068,1.068,0,0,0,.224-.477.938.938,0,0,0-.134-.806,1.4,1.4,0,0,0-.611-.432,3.244,3.244,0,0,0-.85-.164q-.308-.02-.57-.02-.131,0-.25.005a1.663,1.663,0,0,0-.245-.018q-.063,0-.128.005-.179.013-.343.028a1.632,1.632,0,0,1-.252.02c-.041,0-.081,0-.121-.005q-.179-.015-.373-.015-.671,0-1.312-.043l-.641-.061q-.313-.015-.641-.015Q91.186,1358.61,90.982,1358.61Z" transform="translate(-88.095 -1358.61)" fill="#fff"/>
    </g>
    <g id="그룹_237" data-name="그룹 237" transform="translate(2769.723 427.211)">
      <path id="패스_575" data-name="패스 575" d="M63.061,1428.81a1.032,1.032,0,0,0-.46.1,1.424,1.424,0,0,0-.432.3,1.74,1.74,0,0,0-.313.432,2.219,2.219,0,0,0-.179.493,10.718,10.718,0,0,0-.209,1.1q-.06.553-.134,1.1-.328.02-.676.02-.174,0-.353-.005h-.088a5.464,5.464,0,0,0-1.164.149,3.14,3.14,0,0,0-.477.106,1.935,1.935,0,0,0-.477.177,1.242,1.242,0,0,0-.388.285.816.816,0,0,0-.194.417,1.773,1.773,0,0,0,.089.566,1.811,1.811,0,0,0,.253.477v.03l.179.179.194.149a.785.785,0,0,0,.492.149h.552a5.6,5.6,0,0,1,.567.03q.283,0,.582-.015c.063,0,.126-.005.191-.005a3.844,3.844,0,0,1,.391.02,9.338,9.338,0,0,1-.06,1,5.274,5.274,0,0,0-.015,1.046,2.539,2.539,0,0,0,.224.924,1.216,1.216,0,0,0,.7.6,2.957,2.957,0,0,0,.567-.119,1.6,1.6,0,0,0,.492-.27,1.77,1.77,0,0,0,.432-.386,1.023,1.023,0,0,0,.209-.493q.03-.3.045-.566a4.03,4.03,0,0,1,.075-.568l.1-1.162q.656,0,1.3-.03.626-.015,1.282-.015a1.117,1.117,0,0,0,.418-.119,1.264,1.264,0,0,0,.358-.255,1.292,1.292,0,0,0,.268-.341,1.019,1.019,0,0,0,.119-.419,1.043,1.043,0,0,0-.089-.505.979.979,0,0,0-.283-.389,1.437,1.437,0,0,0-.432-.268,1.757,1.757,0,0,0-.492-.134,5.105,5.105,0,0,0-1.1-.119q-.552,0-1.1-.03a9.678,9.678,0,0,0,.06-1.313q0-.656.06-1.311a1.126,1.126,0,0,0-.313-.717.928.928,0,0,0-.7-.3Z" transform="translate(-57.516 -1428.81)" fill="#fff"/>
    </g>
    <g id="그룹_238" data-name="그룹 238" transform="translate(2869.405 374.367)">
      <path id="패스_576" data-name="패스 576" d="M454.5,1219.67a1.979,1.979,0,0,0-.219.013q-.072,0-.144,0a1.911,1.911,0,0,0-.587.1,2.063,2.063,0,0,0-.671.359,1.853,1.853,0,0,0-.492.551,1.6,1.6,0,0,0-.194.715,2.974,2.974,0,0,0,.03.836,1.989,1.989,0,0,0,.268.76,1.659,1.659,0,0,0,.522.566,1.131,1.131,0,0,0,.68.2c.036,0,.072,0,.11-.005a.981.981,0,0,0,.1.005,1.457,1.457,0,0,0,.722-.2,1.875,1.875,0,0,0,.656-.6,3.678,3.678,0,0,0,.447-.775,2.589,2.589,0,0,0,.209-.849,1.389,1.389,0,0,0-.03-.7,1.26,1.26,0,0,0-.343-.551,1.6,1.6,0,0,0-.582-.344A1.573,1.573,0,0,0,454.5,1219.67Z" transform="translate(-452.18 -1219.67)" fill="#fff"/>
    </g>
    <g id="그룹_239" data-name="그룹 239" transform="translate(2820.931 324.721)">
      <path id="패스_577" data-name="패스 577" d="M271.216,1022.87a.924.924,0,0,0-.215.025,1.329,1.329,0,0,0-.447.21,2.392,2.392,0,0,0-.4.328,3.18,3.18,0,0,0-.313.356,9.073,9.073,0,0,0-.6.924,10.6,10.6,0,0,1-.6.94q-.954,1.462-1.819,2.983t-1.7,3.056q-.477,1.045-1.029,2.089-.537,1.028-1.029,2.074-.432.864-.88,1.685t-.85,1.685q-.387.745-.7,1.521a5.932,5.932,0,0,0-.373,1.611.86.86,0,0,0,.134.551.7.7,0,0,0,.462.313,1.6,1.6,0,0,0,.865-.268,3.446,3.446,0,0,0,.671-.642,6.859,6.859,0,0,0,.552-.806q.253-.417.507-.76,1.953-3.327,3.758-6.681t3.415-6.8q.492-.955.94-1.968.209-.462.388-.912a4.18,4.18,0,0,0,.224-.937.43.43,0,0,0-.268-.374l-.417-.164A1,1,0,0,0,271.216,1022.87Z" transform="translate(-260.26 -1022.87)" fill="#fff"/>
    </g>
    <g id="그룹_240" data-name="그룹 240" transform="translate(2788.717 440.416)">
      <path id="패스_578" data-name="패스 578" d="M138.067,1481.19q-.205,0-.406.015a12.525,12.525,0,0,1-1.312.088,8.78,8.78,0,0,0-1.372.106,4.558,4.558,0,0,0-1.267.386,2.347,2.347,0,0,0-.984.9.953.953,0,0,0,.06.475,1.184,1.184,0,0,0,.254.374,1.357,1.357,0,0,0,.373.283,1.306,1.306,0,0,0,.432.134q2.788.061,5.581.061t5.588-.061a1.949,1.949,0,0,0,.656-.179,1.289,1.289,0,0,0,.522-.462.916.916,0,0,0,.045-.7,1.353,1.353,0,0,0-.358-.538,2.309,2.309,0,0,0-.582-.386q-.328-.164-.611-.283-.462-.015-.924-.015t-.91-.03q-.462,0-.939-.045-.308-.021-.616-.02-.154,0-.308,0-.85,0-1.67-.043a8.033,8.033,0,0,1-.835-.045Q138.272,1481.19,138.067,1481.19Z" transform="translate(-132.717 -1481.19)" fill="#fff"/>
    </g>
  </g>
</svg>
