<svg xmlns="http://www.w3.org/2000/svg" width="283.736" height="186.523" viewBox="0 0 283.736 186.523">
  <g id="undraw_chat_bot_re_e2gj" transform="translate(-59.525 0.042)">
    <path id="패스_628" data-name="패스 628" d="M360.066,282.937c-1.655-2.145-3.994-4.129-4.142-6.775-.136-2.427,1.674-4.837.911-7.159-.587-1.785-2.523-2.863-4.415-3.433a17.159,17.159,0,0,0-11.027.424l.191-.135a6.677,6.677,0,0,0-6.366,1.492,13.448,13.448,0,0,0-3.483,5.538,43.362,43.362,0,0,1-2.473,6.06,8.891,8.891,0,0,1-4.942,4.308,3.1,3.1,0,0,0,4.376.958,5.535,5.535,0,0,0,.921-.952l2.694-3.275c.924,1.643-.456,3.911.679,5.432a4.315,4.315,0,0,0,2.648,1.3,47.906,47.906,0,0,0,23.437-.869,2.287,2.287,0,0,0,1.542-.983A1.986,1.986,0,0,0,360.066,282.937Z" transform="translate(-261.588 -244.267)" fill="#2f2e41"/>
    <path id="패스_629" data-name="패스 629" d="M431.354,326.911a4.163,4.163,0,0,0-.095.648l-16.969,9.789-4.124-2.374-4.4,5.757,6.893,4.913a3.16,3.16,0,0,0,3.791-.092l17.5-13.8a4.147,4.147,0,1,0-2.6-4.836Z" transform="translate(-310.863 -279.872)" fill="#ffb7b7"/>
    <path id="패스_630" data-name="패스 630" d="M400.956,347.112l-5.484,7.108a1.778,1.778,0,0,1-2.688.147l-6.209-6.447a4.937,4.937,0,0,1,6.054-7.8l7.787,4.354a1.777,1.777,0,0,1,.539,2.637Z" transform="translate(-298.095 -289.171)" fill="#6c63ff"/>
    <path id="패스_631" data-name="패스 631" d="M241.287,431.658h4.843l2.3-18.679h-7.147Z" transform="translate(-145.974 -249.871)" fill="#ffb7b7"/>
    <path id="패스_632" data-name="패스 632" d="M403.67,668.928h9.538a6.078,6.078,0,0,1,6.078,6.078v.2H403.67Z" transform="translate(-309.593 -488.723)" fill="#2f2e41"/>
    <path id="패스_633" data-name="패스 633" d="M157.287,431.658h4.843l2.3-18.679h-7.147Z" transform="translate(-95.156 -249.871)" fill="#ffb7b7"/>
    <path id="패스_634" data-name="패스 634" d="M319.67,668.928h9.538a6.078,6.078,0,0,1,6.078,6.078v.2H319.67Z" transform="translate(-258.774 -488.723)" fill="#2f2e41"/>
    <circle id="타원_145" data-name="타원 145" cx="8.37" cy="8.37" r="8.37" transform="translate(74.852 42.523) rotate(-83.735)" fill="#ffb7b7"/>
    <path id="패스_635" data-name="패스 635" d="M345.657,333.391l4.931,2.443s5.509,9.574,2.349,18.659c-1.534,4.411,2.786,18.472,2.786,18.472s6.694,63.691,6.715,83.348c-8.316,1.279-16.217,2.859-16.612-1.091s-4.719-50.656-4.719-50.656-5.946,51.841-10.687,52.631S316.2,456.8,316.2,456.8s7.526-75.937,12.662-80.677l.79-3.95-.021-35.458,5.916-2.823Z" transform="translate(-256.675 -285.728)" fill="#2f2e41"/>
    <path id="패스_636" data-name="패스 636" d="M336.437,400.807a4.244,4.244,0,0,0,1.3-6.376l5.734-38.222-7.492-.36-4.47,38.064a4.267,4.267,0,0,0,4.927,6.894Z" transform="translate(-265.094 -299.315)" fill="#ffb7b7"/>
    <path id="패스_637" data-name="패스 637" d="M347.241,356.384l-8.96-.566a1.778,1.778,0,0,1-1.626-2.145l1.867-8.754a4.937,4.937,0,1,1,9.852.651l.751,8.89a1.778,1.778,0,0,1-1.883,1.923Z" transform="translate(-269.026 -289.913)" fill="#6c63ff"/>
    <path id="패스_638" data-name="패스 638" d="M678.587,289.249H480.45A5.454,5.454,0,0,0,475,294.7V405.1a5.454,5.454,0,0,0,5.454,5.454H678.587a5.454,5.454,0,0,0,5.454-5.454V294.7A5.454,5.454,0,0,0,678.587,289.249Z" transform="translate(-352.744 -259.023)" fill="#3f3d56"/>
    <rect id="사각형_606" data-name="사각형 606" width="194.421" height="109.674" transform="translate(129.563 39.864)" fill="#fff"/>
    <circle id="타원_146" data-name="타원 146" cx="1.994" cy="1.994" r="1.994" transform="translate(224.614 32.885)" fill="#fff"/>
    <path id="패스_639" data-name="패스 639" d="M466.816,210.657H328V100.983Z" transform="translate(-198.432 -61.119)" fill="#f2f2f2"/>
    <path id="패스_640" data-name="패스 640" d="M676.774,583.735H657.8v-1.367a.271.271,0,0,0-.271-.271h-6.505a.271.271,0,0,0-.271.271v1.367h-4.066v-1.367a.271.271,0,0,0-.271-.271H639.91a.271.271,0,0,0-.271.271h0v1.367h-4.066v-1.367a.271.271,0,0,0-.271-.271H628.8a.271.271,0,0,0-.271.271h0v1.367h-4.066v-1.367a.271.271,0,0,0-.271-.271h-6.505a.271.271,0,0,0-.271.271v1.367h-4.066v-1.367a.271.271,0,0,0-.271-.271H606.57a.271.271,0,0,0-.271.271h0v1.367h-4.066v-1.367a.271.271,0,0,0-.271-.271h-6.506a.271.271,0,0,0-.271.271h0v1.367h-4.066v-1.367a.271.271,0,0,0-.271-.271H539.889a.271.271,0,0,0-.271.271h0v1.367h-4.066v-1.367a.271.271,0,0,0-.271-.271h-6.505a.271.271,0,0,0-.271.271h0v1.367h-4.066v-1.367a.271.271,0,0,0-.271-.271h-6.505a.271.271,0,0,0-.271.271h0v1.367h-4.066v-1.367a.271.271,0,0,0-.271-.271h-6.506a.271.271,0,0,0-.271.271h0v1.367h-4.066v-1.367a.271.271,0,0,0-.271-.271h-6.505a.271.271,0,0,0-.271.271h0v1.367H491.1v-1.367a.271.271,0,0,0-.271-.271h-6.505a.271.271,0,0,0-.271.271v1.367h-4.066v-1.367a.271.271,0,0,0-.271-.271h-6.505a.271.271,0,0,0-.271.271h0v1.367H460.468a6.505,6.505,0,0,0-6.505,6.505v2.942a6.505,6.505,0,0,0,6.505,6.505H676.774a6.505,6.505,0,0,0,6.505-6.505V590.24a6.505,6.505,0,0,0-6.506-6.505Z" transform="translate(-340.019 -436.191)" fill="#3f3d56"/>
    <path id="패스_641" data-name="패스 641" d="M732.167,549.967a4.809,4.809,0,0,1-.219.452,5.753,5.753,0,0,1-10.815-2.735v-.929h.788a20.122,20.122,0,0,0,10.246,3.212Z" transform="translate(-501.653 -414.81)" fill="#3f3d56"/>
    <path id="패스_642" data-name="패스 642" d="M760.638,547.443v.657a5.751,5.751,0,0,1-10.8,2.753,4.782,4.782,0,0,1-.228-.463c.168,0,.334.007.5.007A20.153,20.153,0,0,0,760.638,547.443Z" transform="translate(-518.881 -415.226)" fill="#3f3d56"/>
    <path id="패스_643" data-name="패스 643" d="M796.351,371.575c-.173-.025-.348-.042-.523-.053a19.348,19.348,0,0,1,.385,14.449c.175-.021.348-.048.521-.081a7.258,7.258,0,0,0-.383-14.315Z" transform="translate(-546.843 -308.796)" fill="#3f3d56"/>
    <path id="패스_644" data-name="패스 644" d="M695.544,371.522c-.175.011-.35.028-.523.053a7.258,7.258,0,0,0-.383,14.315c.173.032.346.06.521.081A19.351,19.351,0,0,1,695.544,371.522Z" transform="translate(-482.069 -308.797)" fill="#3f3d56"/>
    <path id="패스_645" data-name="패스 645" d="M738.814,353.025a19.812,19.812,0,1,0,1.537,7.649,19.812,19.812,0,0,0-1.537-7.649Zm-.138,14.4a19.349,19.349,0,1,1,1.214-6.746,19.349,19.349,0,0,1-1.214,6.746Z" transform="translate(-489.306 -290.246)" fill="#3f3d56"/>
    <path id="패스_646" data-name="패스 646" d="M739.317,379.647H719.041a4.032,4.032,0,0,0,0,8.064h20.275a4.032,4.032,0,0,0,0-8.064Z" transform="translate(-497.948 -313.712)" fill="#3f3d56"/>
    <path id="패스_647" data-name="패스 647" d="M737.283,461.817q-.111-.2-.228-.4l-.007-.012a20.728,20.728,0,1,0-18.84,31.162c.219.012.44.018.661.018.092,0,.182,0,.274,0a20.584,20.584,0,0,0,10.527-2.878,20.874,20.874,0,0,0,8.05-8.652l.007-.012c.069-.138.136-.279.2-.422a20.706,20.706,0,0,0-.647-18.81Zm.2,18.683q-.1.214-.207.422a20.418,20.418,0,0,1-7.6,8.253,20.154,20.154,0,0,1-10.527,2.954c-.168,0-.334,0-.5-.007q-.107,0-.214-.007a20.275,20.275,0,1,1,18.16-30.581l.007.012c.081.131.159.265.233.4a20.25,20.25,0,0,1,.654,18.557Z" transform="translate(-487.913 -356.958)" fill="#3f3d56"/>
    <path id="패스_648" data-name="패스 648" d="M771.585,479.056a2.4,2.4,0,0,0-1.383-.445h-9.062a2.38,2.38,0,1,0,0,4.76H770.2a2.357,2.357,0,0,0,.482-.048,2.61,2.61,0,0,0,.461-.145,2.379,2.379,0,0,0,.44-4.122Z" transform="translate(-524.417 -373.584)" fill="#3f3d56"/>
    <circle id="타원_147" data-name="타원 147" cx="1.208" cy="1.208" r="1.208" transform="translate(236.118 106.199)" fill="#f1f1f1"/>
    <circle id="타원_148" data-name="타원 148" cx="1.208" cy="1.208" r="1.208" transform="translate(240.045 106.199)" fill="#f1f1f1"/>
    <circle id="타원_149" data-name="타원 149" cx="1.208" cy="1.208" r="1.208" transform="translate(243.972 106.199)" fill="#6c63ff"/>
    <path id="패스_649" data-name="패스 649" d="M870.889,280.852c-3.142,1.885-8.741,4.246-14.462,1.819l-3.7-1.569,7.411-8.308a35.394,35.394,0,1,1,10.749,8.057Z" transform="translate(-580.199 -213.269)" fill="#fff"/>
    <path id="패스_650" data-name="패스 650" d="M870.3,280.7c-3.02,1.773-8.771,4.223-14.636,1.735l-4.206-1.784L859,272.191a35.789,35.789,0,1,1,50.791,2.731h0A35.63,35.63,0,0,1,870.3,280.7Zm41.374-55.8a35,35,0,0,0-51.85,47.025l.239.263-7.281,8.161,3.191,1.353c5.664,2.4,11.268-.093,14.1-1.794l.183-.11.192.094A35,35,0,0,0,911.677,224.9Z" transform="translate(-579.593 -212.665)" fill="#6c63ff"/>
    <path id="패스_651" data-name="패스 651" d="M970.737,252.782a32.573,32.573,0,0,0-29.691-32.443c.947-.083,1.906-.128,2.877-.128a32.572,32.572,0,0,1,0,65.143c-.969,0-1.927-.046-2.874-.129A32.573,32.573,0,0,0,970.737,252.782Z" transform="translate(-634.698 -217.255)" opacity="0.1"/>
    <rect id="사각형_607" data-name="사각형 607" width="23.274" height="2.161" transform="translate(287.481 29.032)" fill="#6c63ff"/>
    <rect id="사각형_608" data-name="사각형 608" width="40.565" height="2.161" transform="translate(287.481 36.508)" fill="#6c63ff"/>
    <rect id="사각형_609" data-name="사각형 609" width="40.525" height="2.161" transform="translate(287.481 43.985)" fill="#6c63ff"/>
    <path id="패스_653" data-name="패스 653" d="M372.26,279.158a6.385,6.385,0,0,0-2.606-3.6,10.672,10.672,0,0,0-13.643.83,6.971,6.971,0,0,0-2.107,3.377,4.142,4.142,0,0,0,.883,3.772l.167.1a1.507,1.507,0,0,1,.945-1.569,7.548,7.548,0,0,1,1.927-.432,7.084,7.084,0,0,0,4.8-3.389,8,8,0,0,0,4.585,4.778c1.106.433,4.144,1.027,5.2.478C373.754,282.8,372.586,280.638,372.26,279.158Z" transform="translate(-279.403 -249.482)" fill="#2f2e41"/>
  </g>
</svg>
