<svg xmlns="http://www.w3.org/2000/svg" width="8.612" height="19.521" viewBox="0 0 8.612 19.521">
  <g id="right-chevron" transform="translate(8.815 19.521) rotate(180)">
    <g id="그룹_24" data-name="그룹 24" transform="translate(8.612 19.521)">
      <path id="패스_36" data-name="패스 36" d="M.111,19.168a.525.525,0,0,0,.446.354.456.456,0,0,0,.334-.177l7.5-8.885a1.234,1.234,0,0,0,0-1.414L.89.175C.64-.119.3-.031.111.352A1.265,1.265,0,0,0,.222,1.59L7.127,9.767.222,17.945A1.237,1.237,0,0,0,.111,19.168Z" transform="translate(-8.409 -19.521)"/>
    </g>
  </g>
</svg>
